<?xml version="1.0" encoding="UTF-8"?>
<svg id="_レイヤー_2" data-name="レイヤー 2" xmlns="http://www.w3.org/2000/svg" viewBox="0 0 508.84 460.52">
  <defs>
    <style>
      .cls-1 {
        stroke: #094;
        stroke-miterlimit: 10;
        stroke-width: 20px;
      }

      .cls-1, .cls-2 {
        fill: #094;
      }

      .cls-3 {
        fill: #f18d00;
      }
    </style>
  </defs>
  <g id="v3">
    <g id="halftone_brain" data-name="halftone brain">
      <path id="_アウトライン" data-name="アウトライン" class="cls-1" d="M401.96,52.07c1.88,1.4,4.11,2.32,5.54,4.31,1.53,2.13,3.46,8.54,4.95,10.05.17.17,3.66,2.64,3.89,2.73,1.22.49,4.41.48,5.97,1.16,9.59,4.19,22.26,16,25.46,27.18,1.64,5.72-.39,9.51,5.19,12.59,10.96,6.06,17.18,13.38,19.9,26.59.8,3.87.37,10.31,1.25,13.32.3,1.04,7.26,8.01,8.75,10.1,4.62,6.51,8.25,14.73,8.96,22.74.35,3.96-.97,10.13-.59,12.57.23,1.48,3.27,5.33,4.16,7.86,4.12,11.64.52,15.83.75,25.73.12,5.32,3.21,8.52,2.63,15.42-.46,5.47-4.92,11.61-5.11,14.63-.15,2.32,2.2,7.2,2.44,10.33,1.43,18.13-17.7,50.15-39.31,46.6,6.34,17.41-1.67,30.88-11.46,44.67-10.99,15.47-28.15,31.08-48.06,32.48-4.94.35-13.8-1.51-17.14-.89-1.83.34-4.91,3.97-7.73,5.16-9.69,4.12-20.64,2.64-30.43-.01l11.85,43.92c-6.02,9.88-25.43,13.7-31.46,1.81-4.11-8.1-5.77-17.74-10.56-26.29-6.9-12.33-19.97-21.94-25.69-33.43-1.2-2.4-2.38-8.41-3.73-9.98-.79-.93-7.38-2.9-9.56-4.15-3.55-2.03-8.33-6.45-10.9-9.66-1.48-1.85-6.11-10.57-6.66-10.9-1.61-.95-18.61,4.48-22.65,4.87-8.37.8-17.9-.59-25.5-4.29-4.13-2.01-7.49-6.02-11.07-7.78-3.59-1.76-8.37-2.25-12.32-3.96-2.39-1.04-8.85-5.86-9.39-5.97-1.08-.22-8.1,2.94-11.03,3.24-17.68,1.78-45.35-14.77-51.37-31.73-1.66-4.68-2.61-10.42-3.04-15.38-15.91-.89-41.85,2.95-54.38-8.6-1.93-1.78-4.82-6.75-5.62-7.23-1.67-1-6.16-.96-8.53-1.75-7.06-2.35-11.95-7.6-14.73-14.41-1.65-4.03-1.73-9.57-3.04-12.38-.73-1.57-5.92-5-7.79-7.63-4.98-6.99-5.27-16.24-4.34-24.61.4-3.63,3.38-9.46,3.39-12.08s-2.95-6.12-3.41-9.5c-1.54-11.33.96-20.12,7.66-29.04,1.34-1.78,5.3-4.51,5.8-6.19.73-2.45-.18-5.76.19-8.38,2.28-16.16,11.09-29.26,25.11-37.44,1.31-.76,3.9-.97,4.67-1.75,1.05-1.05,1.42-7.11,2.16-9.41,5.97-18.55,25.23-33.61,44.1-37.3,1.4-.27,4.88.01,5.26-.31.14-.12.56-2.64,1.05-3.65,8.03-16.74,29.81-26.11,47.47-27.95,3.5-.37,8.78.71,11.81-.19,1.02-.3,5.76-5.13,8.06-6.51,10.08-6.05,20.05-6.62,31.57-6.21,2.72.1,7.67,1.78,9.27,1.51,1.12-.19,6.13-4.11,8.54-5.05,8.49-3.29,14.33-.63,22.38-.67,11.07-.06,19.11-3.01,29.91,1.8,2.01.89,7.14,4.68,7.97,4.81,1.21.19,12.82-3.69,16.24-3.97,6.2-.5,13.66,1.1,19.38,3.55,2.94,1.26,10.26,7.01,11.57,7.36,1.47.39,10.14-.97,13.5-.72,8.55.65,21.21,5.25,27.79,10.77,2.49,2.09,5.84,7.71,7.13,8.3,3,1.37,9.28,1.48,13.73,3.42,3.72,1.62,4.35,3.18,7.49,4.92.35.19.75,1.12,1.71.86ZM290.56,40.93c-.39-6.56-6.85-16.95-12.23-20.76-13.16-9.34-19.61-3.65-32.79-4.05-4.03-.12-8.8-1.88-12.81-1.82-4.28.07-13.06,2.94-14.14,7.78,5.09-1.03,10.52-1.84,15.62-.62,5.58,1.34,18.1,10.59,21.6,15.24,4.82,6.43,6.84,14.3,7.35,22.22,2.26-1.49,4.41-3.06,6.85-4.28l1.71.86c-13.5,12.02-22.24,31.95-21.41,50.12.96,21.13,13.94,36.53,13.78,57.42-.03,3.63-1.91,5.8-3.5,1.71-1.88-4.84-1.79-13.08-3.4-18.87-1.83-6.58-7.03-17.61-12-22.27-2.34-2.2-14.05-8.98-14.58-10.28-.93-2.28,4.3-1.13,5.16-.87,2.25.67,11.31,7.85,11.97,7.3-3.21-14.08-2.63-28.57,3.03-41.95,3.71-8.78,8.99-12.04,8-22.63-.7-7.51-4.03-12.38-8.48-18.07-7.81-9.97-17.37-17.35-30.82-12.02-3.16,1.25-14.15,10.35-8.52,1.76l6.38-3.91c-14.21-6.13-34.09-3.93-45.85,6.44,4.35,1.49,9.52,2.17,13.61,4.37,1.04.56,5.14,2.98,3.51,4.62-.74.74-16.08-5.59-20.14-5.99-17.52-1.7-41.17,5.59-53.13,18.84-1.82,2.02-7.55,8.38-2.53,9.4,7.15,1.46,6.76-.05,12.41-2.09,2-.72,4.83-.92,6.6-1.9s3.76-5.6,5.4-7.53c3.61-4.25,8.21-7.7,13.47-9.67,2.82-1.05,10.03-4.28,10.5.65-9.85.52-21.47,8.34-23.99,18,2.07.1,6.04.24,7.73,1.27,1.42.87-.09,2.16-.44,2.16h-12.85c-6.74,0-23.56,12.45-23.56,19.28v12.42c-12.04-1.72-22.47,3.94-21.43,17.13-2.21.2-3.3-1.44-5.52-1.75-13.91-1.97-26.8,18.89-25.25,31.24.23,1.82,2,6.68,3.4,7.74,1.14.86,5.56,1.91,6.68,1.21.6-.38,5-9.79,7-12.28,8.32-10.36,20.09-16.51,33.39-11.59.33-13.33,2.04-26.94,11.17-37.25,7.7-8.69,19.79-13.57,30.81-8.17-.22-23.59,20.57-31.21,40.72-32.55,8.38-.56,19.7,2.34,26.15-3.84,1.39-1.33,6.23-10.41,8.54-8.16,1.24,1.21-3.12,8.39-4.3,9.83-7.96,9.63-17.79,5.73-28.72,6.41-16.5,1.03-38.21,6.77-38.12,27.05.02,4.92,6.92,7.95,6.02,13.25-4.11-.8-6.32-4.95-9.69-7.02-13.44-8.23-27.55,1.39-33.3,14.16-5.98,13.28-6.25,26.9-2.41,40.85,1.53-.24,3.8-7.48,5.98-5.13,1.41,1.51-1.81,4.42-2.57,5.99-5.04,10.5-17.65,21.55-18.05,32.98-.23,6.66,1.63,8.41,6.05,12.43,2.21,2.01,4.16,3.98,7.13,5.29,8.19,3.62,5.79,1.32,8.13-4.17,6.8-15.96,22.69-23.96,39.61-19.47,3.32-21.39,25.61-45.61,47.94-31.35.54-.73-.75-16.62-1.22-18.05-.93-2.85-4.87-4-7.34-5.09-1.76-.77-3.28-1.25-5.14-1.71-13.05-3.28-24.07-.21-33,10.27-6.74,7.91-6.54,17.81-11.96,24.03-3.27,3.75-11.73,7.09-16.2,4.15-5.1-3.35,4.29-3.13,6.37-3.7,5.32-1.45,7.42-4.51,9.53-9.32,5.77-13.15-2.06-13.25-9.99-20.31-2.81-2.51-9.74-12.01-5.64-15.02,3.25-2.39,2.61,2.57,3.66,5.01,3.25,7.61,12.46,11.43,17.8,17.74,5.11-13.38,21.39-12.42,21.42-28.7,0-4.48-3.78-9.78-3.42-12.85.38-3.2,4.77,2.88,5.31,4.12,2.68,6.17,1.73,13.23-.16,19.43,9.62-2.05,19.8.59,28.27,5.15-.34-5.3,3.72-18.88,1.94-22.92-2.76-6.26-14.86-13.15-21.05-15.8-3.01-1.28-6.69-.77-5.73-4.13,8.7-.42,17.65,4.19,24.02,9.83,1.23,1.09,4.66,6.75,5.97,5.59,1.61-9.2,14.53-30.57,23.77-32.44,3.06-.62,6.65,2.22,2.43,4.22-23.2,11.02-27.56,45.94-26.19,68.91,1.01,17,6.92,35.4,6.92,52.27,0,2.98-.39,6.98-4.35,6.43-2.1-16.57,1.95-53.55-25.23-46.22-11.53,3.11-25.91,22.9-23.62,34.66.54,2.79,5.58,2.83,4.28,7.27-2.27-.38-3.01-2.73-4.5-3.72-11.26-7.48-26.78-4.87-35.26,5.51-9.46,11.57-10.06,25.07,4.62,32.08.99.47,17.52,5.61,14.59,8.11-9.05-.58-23.91-4.64-28.17-13.38-1.16-2.39-2.37-10.15-2.79-10.49-.24-.2-4.4-.5-6.13-1.16-21.99-8.47-20.46-24.88-9.02-42.06,1.56-2.34,7.2-7.94,7.53-9.61.61-3.12-.6-12.7-3.45-14.5-7.86-4.95-20.69-.46-26.94,5.53-11.03,10.58-11.01,21.88-26.21,32.05-.79.53-2.82,2.28-3.36.5,1.96-2.3,3.98-4.61,6-6.85,2.22-2.47,6.49-4.2,6-8.56-20.66-3.2-41.51,21.39-24.87,39,1.82,1.93,8.72,6.43,11.15,5.17,7.36-3.8.27-20.43,13.67-23.24,3.49-.73,6.89.16,9.88-.4,8.63-1.63,7.66-24.94,18.44-24.83.43,2.92-2.56,3.45-3.62,5.35-2.61,4.71-2.79,12.48-6.49,18.38-1.87,2.98-5.45,4.9-6.45,8.11-2.42,7.8-.31,18.3,6.85,22.86,4.71,3,15.77,3.94,18.32,6.53,2.85,2.88,4.92,10.76,6.97,14.45,9.56,17.24,25.28,19.94,43.97,18.56,20.04-1.47,34.76-10.99,18.42-30.39-2.19-2.6-9-7.33-9.85-9-.65-1.28.21-2.54.87-2.56,3.91-.13,14.72,14.64,19.52,16.45,7.34,2.77,11.19-.11,13.08-7.01,2.29-8.38-.39-26.15-1.43-35.49-.39-3.46-2.98-13.9-2.32-16.19.67-2.35,3.06-3.59,4.1-.15,1.59,5.26,2.67,18.53,3.46,24.81,2.21,17.52-2.48,37.86,23.99,28.26,8.12-2.95,24.07-10.93,26.2-20.07.99-4.26.39-8.79-.94-12.89-.66-2.03-7.02-11.25-3.39-12.02,3.2-.68,8.33,11.9,8.98,14.56.21.84.84,2.44.86,2.57.25,2.1-1.41,8.57.43,8.57h15.42c2.92,0,12.76-5.77,15.03-8.1,3.43-3.53,6.13-9.84,6.73-14.7,2.99-24.32-.3-57.86-18.52-75.55-1.11-1.08-2.29-.71-1.96-3.18.37-2.83,9.32,3.9,10.3,3.46,2.18-.97,9.58-14.52,10.88-17.43,4.9-11,7.48-21.91,2.69-33.49-.38-.38-1.13-.02-1.59-.1-.02-.57.03-1.15,0-1.71ZM265.71,196.02c-3.19.57-5.72.94-9.04.9-6.19-.08-8.63-3.71-11.53,4.24,6.96-1.88,13.38-2.53,20.56-2.56,1.13,0,2.3-.07,3.43,0,.85.05,1.73-.09,2.57,0,3.55.39,6.76,1.7,10.18,2.51,4.45-9.21,13.51-15.82,22.38-20.5.96-.51,2.49-1.3,3.43-1.71s3.39-1.43,4.28-1.71,1.25-.55,2.57-.86c6.96-1.6,11.94.34,17.53-.03,2.17-.14,3.65-2.24,5.62-2.97,8.47-3.13,20.51-.9,29.07,1.26,2.14-9.86,12.91-18.49,16.5-26.81,2.01-4.68,1.64-10.9,2.85-16.02.21-.9.12-3.32,1.69-2.56,2.91,1.43-.8,13.04.45,16.27,14.5-2.28,5.34,1.08.44,5.17-4.99,4.16-9.47,10.6-13.14,15.99-1.78,2.62-6.57,13.07-9.14,13.1-1.43.02-6.41-2.71-8.79-3.21-5.78-1.21-14.05-1.71-19.07,1.95l5.56,6.42c-19-11.48-43.03-1.66-56.11,14.13-1.4,1.69-2.06,5.17-3.63,5.86-3.45,1.51-13.88-2.84-19.09-2.86-18.14-.07-52.92,16.14-62.27,31.99-.87,1.47-3.57,6.43-3.35,7.78.09.52,8.02,3.58,6.92,7.36-6.08-2.6-8.51-4.93-15.41-2.13-12.43,5.03-24.33,27.06-22.23,40.22.47,2.95,3.03,5.19,3.39,8.19.77.58,4.87-2.74,5.99-3.43l2.57.86c-.86,1.03-2.56,1.93-3.78,3.51-10.15,13.17-5.58,31.8,10.4,37.43,11.48,4.05,20.1,1.38,30.23-4.09.96-.52,1.51-1.6,1.71-1.71,6.76-3.63,19.87-6.51,24.79-10.77,3.85-3.34,6.61-15.69,9.48-17.08,1.78-.86,10.71-.79,14.02-1.4,9.67-1.8,10.76-5.61,17.94-9.48,8.46-4.56,15.3-1.15,24.21-1.5,9.53-.37,16.6-3.21,24.65-7.91,3.43-2.01,16.41-12.45,18.15-12.7,2.48-.36.46,2.79,2.09,3.93.6.42,12.93,2.78,14.32,2.86,14.49.84,24.3-4.9,39.72,1.79.54.23,2.58,2.8,4.28,3.43,4.21,4.8,10.61,9.63,10.31,16.67-.09,2.08-2.48,7.78-1.67,8.96,16.93.89,38.36,13.02,53.06.52,13.1-11.13,23.78-38.34,7.74-51.46-.67-1.58-6.82-2.48-6.03-4.23,2.51-5.53,12.08,5.83,13.26,5.56,2.33-2.73,3.81-8.02,3.93-11.57.18-5.4-2.6-10.02-2.7-14.58-.18-7.93,4.06-17.38-1.2-25.28-.76-1.13-.94-.93-1.71.01-2.79,3.4-4.62,9.71-9.01,12.85-.08-.05-.64-.04-.86,0l-.86.86c-.68.53-.77,1.67-.86,1.71-.52.24-2.33-.26-2.57,0-.58.64,3.03,7.37,5.14,6.85.07.27-.08.6,0,.86.12.39.48.7.86.86.55,3.91.54,5.67,0,9.43-.32,2.23-.01,5.69-2.56,6.85-1.1-5.49-.18-10.61-2.69-15.74-.95-1.93-5.15-7.81-7.51-6.43-.55.32-6.63,10.16-6.78,10.79-3.03,13.32,3.66,24.96-9.93,36.33-.5.42-.41,1.53-.53,1.62-.3.22-6.4,1.63-7.28,1.72-4.36.44-10.48.13-15,0-1.31-2.26-10.06-2.63-9.42-5.55.16-.74,9.11-7.68,10.99-10.44,5.1-7.52,6.17-17.44,3.56-25.99-4.13-.49-4.77,5.37-9.42,4.29.14-.49-.16-1.3,0-1.71.73-1.89,5.66-5.29,7.04-8.81,3.02-7.67.89-20.04-3.45-26.91-1.23-1.94-4.72-6.1-7.31-5.33-.67.2-6.92,8.7-9.12,10.65-8.26,7.29-22.35,15.23-27.6,25.52-.98,1.91-1.73,9.18-2.83,9.15-2.2-.06-2.45-6.99-1.29-8.55-10.63,4.73-21.26,2.63-32.16,3.39-12.9.9-15.02,6.22-25.22,11.62-7.49,3.96-21.26,9.02-29.59,9.83-21.38,2.09-26.92-4.72-46.96,8.73-14.45,9.7-28.21,22.72-21.16,41.82-6.7-1.96-6.58-9.13-5.9-14.9.74-6.36,6.25-12.09.76-17.65,3.89-1.24,3.85,2.21,4.32,2.54,1.33.94,9.63-8.62,11.56-10.23,6.35-5.32,18.12-11.21,21.72-18.56,2.29-4.67.88-8.21,3.12-12.31,2.41-1.17,2.25,7.17,2.17,8.18-.28,3.57-1.88,4.95-2.61,8.1h28.71c8.09,0,27.34-7.34,34.64-11.64,12.84-7.58,17.99-15.75,25.77-27.78h1.71c-.55,3.28-1.56,6.16-3.08,9.32-1.36,2.83-3.48,5.66-4.64,8.68h20.99c1.92,0,7.77-1.39,10.03-1.96,12.08-3.03,14.16-11.33,22.95-19.04,7.02-6.17,12.64-7.73,18.03-16.25,10.14-16.01,9.7-32.51,5.72-50.32-2.45-10.99-14.92-31.28-26.79-33.19-4.97-.8-9.19,1.65-11.81,1.43-2.21-.18-5.23-2.56-8.7-2.4-8.33.38-5.05,10.03-5.59,15.89-.51,5.5-1.27,14.6-5.12,18.43-2.6-8.05,1.11-16.52.9-24.43-.06-2.15-4.85-18.46-1.34-18.4,2.02.03,1.92,7.6,3.42,7.67,6.25-5.65,11.88-1.6,18-1.63,2.52-.01,4.71-1.04,7.67-.93,6.68.25,11.62,3.98,16.74,7.72.73-8.22-1.06-16.54-8.61-20.94-3.43-2-7.31-2.43-10.55-4.02-12.39-6.06-18.7-15.31-34.19-9.99-11.07,3.81-10.7,11.13-17.64,19.25,4.14,7.78,14.32,17.08,15.97,25.75,1.17,6.15.78,16.59.19,22.92-.69,7.43-3.45,13.33-4.3,1.76-.62-8.42,1.46-19.07-1.25-27.02-2.23-6.52-14.13-17.32-14.96-21.9-1.15-6.37,6.87-9.3,7.7-16.21,1.31-10.89-2.61-36.35-7.98-46.04-8.06-14.54-30.11-19.02-44.29-11.39,4.89,8.54,11.26,20.91,12.01,30.82,1.25,16.49-8.13,32.36-18.07,44.63,4.8,9.8,9.11,20.17,10.93,31.06,2.27,13.58,3.48,44.25-4.89,55.44-4.55,6.08-14.06,10.25-21.42,11.57ZM430.23,101.77c4.63,3.4,8.6,8.19,14.57,5.99-1.42-17.31-19.34-36.25-37.31-35.16-3.45.21-6.38,1.81-9.82,1.74,2.09-7.22,15.02-1.88,8.08-11.93-4.45-6.45-14.67-12.21-22.29-13.7-2.46-.48-6.09.59-8.36-.86-1.02-.65-2.44-5.24-3.63-6.87-3.17-4.33-18.85-12.05-23.94-12.05h-12.42l4.3,12.85c5-3.26,12.95-4.25,17.55,0,5.14,4.76,3.96,3.29,9.89,6.39,7.85,4.1,10.29,9.7,6.99,18.2-.5,1.28-3.28,4.65-2.74,5.39.11.14,2.73.51,3.43.87.56.29,1.18.53,1.71.86,8.34,5.2,14.74,8.25,24.85,12,.52.19.26,1.37,3.43,1.71.46,3.07,4.18,6.05,5.14,8.57.16.43-.16,1.27,0,1.71.76,2.14,1.06,4.66,1.73,6.86,5.16-2.53,11.42-3.26,17.13-2.57.56.07,1.15-.04,1.71,0ZM343.7,75.21c4.24-.58,7.43-4.21,11.77-4.94,6.87-1.15,13.82,2.75,15.44-6.83,2.32-13.74-7.38-10.35-13.83-14.89-2.34-1.64-1.65-4.86-5.42-5.72-2.83-.65-9.41-.13-10.37,2.98l2.42,29.4ZM114.05,64.93c-23.73-3.7-51.3,16.14-53.98,40.26,7.61-.81,15.63-2.02,23.13-.85.51-10.24,10.11-15.69,19.67-15.48.37-9.7,4.45-17.28,11.19-23.93ZM449.94,136.9c-.54-.8-1.84-5.05-2.99-5.09-.25,0-2.29,2.45-3.86,1.66,4.02-14.68-8.59-29.03-23.57-27.42-3.19.34-8.37,2.13-8.88,5.77-.26,1.87,7.44,11.31,9.06,14.62,4.82,9.82,7.82,27.45,7.14,38.34-.31,4.93-4.96,20.47-4.38,22.97.11.46,5.39,3.25,7.28,5.76,1.05,1.39,5.63,10.42,5.63,11.51v14.14c5.28-2.39,8.9-8.81,10.08-14.34,1.28-5.99.81-5.32,3.01-10.73,3.76-9.2,3.22-16.74,1.48-26.34,2.29-.26,3.14,2.65,3.84,4.29,5.34,12.43-.11,18.96-3.84,29.98-.79,2.32-.8,5.82-1.91,8.8-1.21,3.26-4.21,6.32-4.95,8.33-1.27,1.57-7.24,4.38-7.63,5.71-.26.88,3.22,11.34,3.25,14.52.09,10.16-4.93,19.86-11.9,26.89,12.95,2.19,24.08,3.57,28.32-11.51,2.15-7.66-.61-16.84.99-23.86,1.15-5.04,8.33-8.77,9.24-18.18,1.01-10.58-3.86-18.34-4.31-26.58-.26-4.84,3.4-10.37,3.49-15.44.1-5.84-2.51-13.15-7.45-16.53-3.81-2.61-8.57-1.7-6.28-7.85,2.7-.87,2.07-2.34,1.71-5.59-.52-4.69-2.35-3.51-2.57-3.84ZM53.21,127.47c2.49-7.63,6.55-12.38,12-17.99-18.69-.31-34.43,19.67-35.98,37.28-.18,2.1-.67,14.93,2.96,14.11,6.02-7.05,12.5-11.5,21.87-12.85-2.88-6.11-3.11-11.44-1.71-17.98.14-.65.6-1.79.86-2.57ZM470.51,208.02c0,.11-.84.92-.9,2.07-.12,2.48.19,4.88-.4,7.34,16.47-6.45,20.79-27.66,15.63-43.02-1.19-3.54-8.86-16.77-11.74-18.26-2.69-1.4-2.4,3.6-5.16,3.03,2.7-16.1-1.03-38.08-17.42-45.56-.86-.39-8.7-3.28-7.43-.29.82,1.93,3.63,3.65,4.55,7.45.68,2.83.14,5.68.76,7.81.78,2.68,6.12,6.41,7.16,12.56.43,2.53-.65,7.36-.42,7.67.21.29,4.56,1.7,6.41,3.46,6.38,6.08,7.23,16.61,6.39,24.89-.12,1.23-.61,3.7-.86,5.14-.17.99-1.78,1.9-1.54,4.51.5,5.32,4.75,13.56,4.96,20.34,0,.29,0,.57,0,.86ZM26.65,174.6c.32-6.28,4.56-9.45-.42-15.42-8.98,8.48-14.37,21.13-9.85,33.41,2.73-1.12,4.93-2.91,7.7-4.28,1.23-.61,3.42-.35,4.14-2.22-.87-3.9-1.77-7.41-1.57-11.49ZM69.49,177.17c-3.93,0-7.94-.8-10.76,2.51-3.31,3.89-1.35,8.14-2.27,12.3-.82,3.7-5.18,7.25-5.82,13.03-2.78,25.17,26.5,40.2,48.46,33.04,12.02-3.92,5.93-5.53,2.8-12.32-1.63-3.52-2.52-9.83-5.37-12.62-2.18-2.14-13.17-4.25-17.36-6.63-11.25-6.41-11.87-17.55-9.67-29.31ZM30.07,201.16c.62-1.23,4.58-4.13,4.16-6.3-.08-.44-4.58-5.13-5.01-5.33-.78-.35-5.97,3.28-6.87,4.33-9.17,10.74-11.68,39.29,4.31,45.42,2.17.83,10.79,1.69,11.12,2.16,2.33,3.25-9.03,2.32-9.48,3.94,2.35,21.67,20.12,25.38,37.78,16.2,2.78-1.44,10.73-8.32,12.4-8.16,2.6.25-3.36,7.2-3.85,7.72-1.34,1.43-3.75,2.73-5.14,4.28-4.03,2.11-9.67,3.01-13.49,4.96-.59.3-1.66.08-1.07,1.46.62,1.46,6.57,6.27,8.29,7.14,11.36,5.79,28.66,1.9,40.94,4.47,18.33-1.89,39.57,3.05,57.49.86,4.58-.56,2.55-3.42,2.96-6.9.1-.83-.13-1.79,0-2.57.02-.13.68-2.06.86-2.57.15-.45,1.22-2.23,1.71-3.43.73-1.76,1.78-4.41,2.57-6,.21-.42.99-.92,1.71-2.57.32-.74,1.21-1.34.86-2.57,2.2-.34,1.61-.82,2.57-1.71,1.34-1.23,2.27-3.16,3.43-4.28.58-.56,1.15-1.18,1.71-1.71,2.17-2.06,5.34-4.81,7.98-6.16,1.8-.92,6.73-2.06,7.24-2.62.47-.52,1.4-4.53,2.17-5.97,3.8-7.16,8.43-11.93,14.31-17.39-3.64-.05-7.59-1.13-11.14-1.28-.27-.01-.6-.04-.86,0l-4.27-5.14c-.06,3.08-6.17,10.35-8.58,11.14-.37.12-1.18,0-1.71,0-2.42.04-4.46-.96-6.85-.86.08,5.97.77,11.2-3.05,16.24-1.42,1.87-3.87,2.07-3.81,4.33-2.23.48-3.85,1.42-5.14,1.71-2.28.53-4.62,1.31-6.85,1.71-1.01.19-2.34-.13-3.43,0-12.3,1.41-24.43,2.03-36.21-2.77-2.2-.9-8.46-4.95-9.64-4.91-.68.02-8.45,4.34-11.56,5.11-.71.18-1.8-.15-2.57,0-9.17,1.77-13.08,1.84-22.28-.86-.91-.27-1.68-.53-2.57-.86-3.13-1.16-10.71-6.48-11.75-6.73-1.56-.38-7.11,2.23-10.07,2.47-13.39,1.12-22.57-6.22-22.75-19.74-.07-5.45.93-11.38,3.43-16.28ZM32.06,205.69c-1.55,10.66-4.11,21.24,7.98,26.2,5.19,2.13,9.69,2.77,14.49-.73-5.45-8.38-8.22-13.4-8.72-23.73-.09-1.9,1.37-4.51.14-6.32-.74-1.09-6.55-2-7.75-4.16l-6.15,8.72ZM373.68,295.42c2.61,2.12,5.41,4.62,9.07,5.07,6.43.79,13.9-.43,20.48.08,2.3.18,11.29,2.51,11.89,2.39,1.11-.21,3.23-2.93,3.59-4.07,2.24-6.96-7.44-16.74-13.33-19.33-11.29-4.97-25.01-.44-36.45-1.26-8.31-.59-14.45-4.9-22.95-.73-11.85,5.83-16.41,13.24-31.83,14.44-8.58.67-20.57-2.31-27.63,1.51-8.74,4.73-8.85,7.65-20.49,9.5-3.06.49-6.68-.59-9.55.74-3.48,1.61-5.16,14.06-10.52,17.76-4.44,3.07-12.72,4.7-17.69,7.16-8.18,4.03-14.41,11.98-25.12,10.44-2.13,1.81,9.7,7.09,10.9,7.51,17.52,6.14,45.72-4.28,62.51-11.65,7.41-3.25,14.59-9.15,21.74-11.68,10.92-3.86,23.28-3.78,31.28-14.15,1.79-.4,1.95,2.75,3.52,3.27,7.74,2.55,26.33-1.43,33.45-5.7,5.19-3.12,5.78-3.72,6.26-9.59.06-.72.01-1.5.86-1.71ZM164.59,288.56h-49.69c-.48,11.09,4.76,21.38,13.43,28.14,10.66,8.3,29.24,17.44,42.33,10.76-2.34-6.86-4.32-12.93-3.4-20.38.33-2.66,2.67-6.98,2.51-8.63-.21-2.15-5.74-6.42-5.18-9.9ZM386.53,304.85c-3,.69-6.96-1.57-9.66-.89-.33.08-3.47,3.65-4.99,4.65-6.04,3.99-13.91,7.17-21.14,7.99-5.31.6-18.81-1.08-21.63-.28-1.53.43-4.48,3.46-6.65,4.56-3.88,1.96-15.66,4.41-17.33,5.8-5.07,4.23,8.44,19.93,12.74,22.41,21.56,12.44,35.6-25.27,50.15-34.49l18.51-9.75ZM333.51,354.65c-4.28,6.58,14.62,18.94,19.03,21.47,42.32,24.2,74.3,10.23,96.38-30.73,4.91-9.11,7.83-23.29-.46-30.9-17.09-1.98-33.9-9.67-51.12-6.97-13.56,2.12-25.97,8.79-35.23,18.75-7.85,8.44-13.46,21.08-23.83,26.72-1.08.59-4.58,1.4-4.76,1.67ZM299.98,327.98c-8.25,3.85-15.28,9.18-23.76,12.65-4.8,1.97-11.08,3.02-15.43,5.16-.69.34-1.57-.11-1,1.38s5.12,8.52,6.33,9.97c5.49,6.61,13.65,11.44,22.31,11.96,2.54.15,12.45-1.2,13.27.03,3.06,4.59-11.48,4.74-13.7,4.27,2.38,14.32,15.97,22.29,23.83,34.01,7.15,10.67,11.84,23.26,16.06,35.35,2.35,3.07,9.15,3.3,12.6,2.41.38-.1,6.81-2.93,7.12-3.16.75-.58,1.11-1.19,1.16-2.15.17-3.27-5.88-19.02-7.22-23.62-1.42-4.88-4.16-20.44-6.85-23.14-2.84-2.84-8.49-5.65-11.61-8.96-6.01-6.37-10.8-17-11.11-25.78-.09-2.44,1.16-6.09.76-7.5-.44-1.56-2.65-2.07-3.66-3.26-4.9-5.73-8.85-11.77-9.09-19.62ZM328.18,356.35c-.41-.35-8.7-.39-10.52-1.87-3.13,6.12,2.32,18.45,6.35,23.61,9.04,11.58,24.33,18.2,38.96,16.72,2.1-.21,12.83-2.22,8.77-4.47-16.13-8.94-33.28-12.26-42.52-30.32-.52-1.01-.89-3.54-1.03-3.66Z"/>
      <path class="cls-2" d="M401.96,52.07c-.97.27-1.37-.67-1.71-.86,1.08-1.24,1.23.5,1.71.86Z"/>
      <path class="cls-3" d="M265.71,196.02c7.36-1.32,16.87-5.49,21.42-11.57,8.37-11.19,7.16-41.86,4.89-55.44-1.82-10.89-6.13-21.25-10.93-31.06,9.94-12.27,19.32-28.14,18.07-44.63-.75-9.91-7.11-22.28-12.01-30.82,14.18-7.63,36.23-3.15,44.29,11.39,5.37,9.69,9.29,35.16,7.98,46.04-.83,6.91-8.85,9.84-7.7,16.21.83,4.59,12.73,15.39,14.96,21.9,2.72,7.95.63,18.6,1.25,27.02.86,11.57,3.61,5.66,4.3-1.76.59-6.33.98-16.77-.19-22.92-1.65-8.67-11.83-17.96-15.97-25.75,6.95-8.12,6.57-15.45,17.64-19.25,15.49-5.33,21.8,3.92,34.19,9.99,3.24,1.59,7.13,2.02,10.55,4.02,7.55,4.4,9.34,12.72,8.61,20.94-5.12-3.75-10.06-7.47-16.74-7.72-2.96-.11-5.14.92-7.67.93-6.13.03-11.75-4.03-18,1.63-1.5-.07-1.4-7.64-3.42-7.67-3.51-.06,1.29,16.25,1.34,18.4.2,7.91-3.5,16.37-.9,24.43,3.85-3.84,4.61-12.94,5.12-18.43.54-5.87-2.74-15.52,5.59-15.89,3.47-.16,6.49,2.22,8.7,2.4,2.61.21,6.84-2.23,11.81-1.43,11.87,1.91,24.33,22.2,26.79,33.19,3.98,17.81,4.42,34.31-5.72,50.32-5.39,8.51-11.01,10.08-18.03,16.25-8.79,7.72-10.86,16.01-22.95,19.04-2.27.57-8.11,1.96-10.03,1.96h-20.99c1.16-3.02,3.27-5.85,4.64-8.68,1.52-3.16,2.53-6.04,3.08-9.32.02-.1.67-.12.85-.42l-.43-.44c-1.62-.16-1.49-.14-2.14.86-7.79,12.03-12.93,20.2-25.77,27.78-7.29,4.3-26.55,11.64-34.64,11.64h-28.71c.73-3.15,2.33-4.53,2.61-8.1.08-1.01.24-9.34-2.17-8.18-2.24,4.1-.83,7.63-3.12,12.31-3.6,7.35-15.36,13.23-21.72,18.56-1.93,1.61-10.23,11.17-11.56,10.23-.46-.33-.43-3.78-4.32-2.54,5.49,5.56-.02,11.29-.76,17.65-.67,5.77-.8,12.94,5.9,14.9-7.06-19.1,6.71-32.12,21.16-41.82,20.04-13.46,25.58-6.64,46.96-8.73,8.32-.81,22.1-5.87,29.59-9.83,10.21-5.4,12.33-10.72,25.22-11.62,10.91-.76,21.53,1.34,32.16-3.39-1.16,1.56-.91,8.48,1.29,8.55,1.1.03,1.85-7.24,2.83-9.15,5.25-10.29,19.34-18.23,27.6-25.52,2.2-1.94,8.45-10.45,9.12-10.65,2.59-.77,6.09,3.39,7.31,5.33,4.34,6.87,6.47,19.24,3.45,26.91-1.39,3.52-6.31,6.92-7.04,8.81-7.05-4.21-8.53,6.28-2.16,5.18,2.79-.48,1.71-1.88,2.16-3.47,4.65,1.08,5.28-4.78,9.42-4.29,2.61,8.56,1.54,18.48-3.56,25.99-1.88,2.76-10.83,9.7-10.99,10.44-.64,2.93,8.1,3.29,9.42,5.55-2.84-.09-6.44.41-9.04.04-4.07-.57-9.68-5.34-9.81,3.38-15.41-6.69-25.22-.95-39.72-1.79-1.39-.08-13.72-2.44-14.32-2.86-1.63-1.14.39-4.29-2.09-3.93-1.74.25-14.72,10.7-18.15,12.7-8.04,4.7-15.11,7.54-24.65,7.91-8.9.35-15.74-3.06-24.21,1.5-7.18,3.87-8.27,7.68-17.94,9.48-3.31.62-12.24.54-14.02,1.4-2.87,1.39-5.63,13.74-9.48,17.08-4.91,4.26-18.03,7.14-24.79,10.77-6.59-2.24-12.35-4.71-17.59-9.4-1.91-1.71-3.01-4.19-4.73-5.55-3.06-2.43-4.51-.12-2.15,3.01.8,1.06,7.7,6.98,9.12,8.02,3.83,2.8,8.77,5.59,13.64,5.64-10.13,5.48-18.75,8.14-30.23,4.09-15.97-5.63-20.55-24.26-10.4-37.43,1.22-1.58,2.93-2.48,3.78-3.51,2.95-3.55.15-2.54-2.57-.86-1.11.69-5.21,4.01-5.99,3.43-.36-3-2.92-5.24-3.39-8.19-2.1-13.15,9.8-35.18,22.23-40.22,6.9-2.8,9.33-.47,15.41,2.13,1.1-3.77-6.83-6.84-6.92-7.36-.22-1.35,2.48-6.31,3.35-7.78,9.35-15.85,44.13-32.06,62.27-31.99,5.2.02,15.63,4.37,19.09,2.86,1.57-.69,2.23-4.17,3.63-5.86,13.09-15.79,37.12-25.62,56.11-14.13l-5.56-6.42c5.03-3.67,13.29-3.16,19.07-1.95,2.39.5,7.37,3.23,8.79,3.21,2.56-.03,7.35-10.49,9.14-13.1,3.67-5.39,8.15-11.84,13.14-15.99,4.9-4.08,14.06-7.44-.44-5.17-1.25-3.23,2.46-14.84-.45-16.27-1.57-.77-1.48,1.65-1.69,2.56-1.21,5.13-.83,11.34-2.85,16.02-3.58,8.32-14.35,16.95-16.5,26.81-8.57-2.16-20.61-4.39-29.07-1.26-1.96.73-3.44,2.82-5.62,2.97-5.59.36-10.57-1.57-17.53.03,1.01-4.5,6.99-7.37,7.66-11.62.4-2.49.37-15.52-.73-17.01-.74-1-1.68-.38-2.65-.5v18.42c0,.4-4.78,4.55-4.97,6.17l-1.88,5.4c-.9.29-3.31,1.28-4.28,1.71.57-2.88,3.43-8.03,3.43-10.71v-20.14c-1.18-.22-2.06.29-2.42,1.43-1.15,3.64-.21,15.09-1.1,20.33-.64,3.74-2.28,7.2-3.34,10.8-8.87,4.68-17.93,11.29-22.38,20.5-3.42-.81-6.63-2.12-10.18-2.51-.62-.95-2.28-1.34-2.57,0-1.13-.07-2.29,0-3.43,0v-2.57ZM328.26,52.06c-.94-4.7-2.63-11.93-8.19-12.8-2.59-.4-8.98.82-10.25-.89-.72-.96-.72-4.1-1.76-5.95-2.73-4.89-9.88-5.68-14.93-5.2-2.79,2.12,6.25,1.76,7.08,1.91,8.11,1.49,6.29,10.18,8.91,11.87,2.97,1.91,8.91-.16,12.27,1.23l6.87,9.83ZM316.15,53.06c-2.48-4.01-9.58,5.39.12,4.15-.17-1.16.4-3.31-.12-4.15ZM338.55,162.6v-34.7c0-7.56-14.29-17.32-18.85-23.14v-28.71h-2.57v25.28c0,3.62,15.81,19.41,17.98,24.01-1.2,10.88,1.71,25.53-.03,35.92-.78,4.65-6.75,6.27-2.1,9.9,3.34-3.58,7.99-6.99,9.63-11.79,1.7-4.97,1.91-33.32.88-38.99-1.05-5.81-12.89-13.53-15.2-19.93-2.56-7.11.94-29.72-1.64-33.32-.83-1.16-3.2-.27-4.38-.49.12,1.94,1.46,2.44,1.76,4.66,1.02,7.55-.67,24.28.98,29.86.71,2.39,12.59,12.59,14.73,16.97,2.59,5.3,1.28,7.49,1.33,12.3.1,8.18.97,19.72.06,27.47-.21,1.78-.65,4.01-2.59,4.69ZM308.56,67.49v36.42c0,4.64,15.45,16.77,17.43,21.99,1.41,3.65-2.15,21.93-1.03,23.73.46.73,2.88.85,3.92.38,4.36-2.01.61-5.48.2-8.35-.69-4.88,1.12-12.23-.34-16.8-1.67-5.24-14.39-14.62-16.34-19.64-3.47-8.9.48-23.78-.41-33.87-.23-2.56-.42-4.55-3.43-3.85ZM318.84,139.47c-.04,1.06-1.46,2.43-.76,4.58.92,2.82,6.51,1.96,4.89-3.15-.32-1-1.53-1.33-1.56-1.43-1.05-3.39,1.19-10.97-.44-14.55-1.76-3.84-10.46-10.34-13.26-14.16-.9-1.22-2.08-3.02-2.38-4.48-1.11-5.46-.42-18.49-.23-24.69.1-3.23,3.01-8.18-2.11-8.18-6.61,0-.78,5.64-.44,7.37,1.6,8.25-2.9,25.45,2.57,31.7,1.09,1.24,3.04,1.94,4.34,3.38,8.54,9.43,9.93,10.16,9.39,23.6ZM295.71,79.49v33.85c0,4.1,11.69,11.43,12.68,14.74.47,1.58.47,8.33.22,10.15-.35,2.47-3.23,5.55-1.38,8.15.71,1,4.64,1.21,5.49.67,2.43-1.54-.5-7.03-.66-8.94-.32-3.78.57-7.78-.56-11.47-.93-3.05-11.22-9.39-12.19-12.63-1.76-5.93.47-22.21-.18-29.81-.23-2.74-.4-5.66-3.42-4.72ZM365.11,85.48c-2.65-8.68-18.05-1.44-19.52,4.89-2.61,11.31,13.34,20.02,10.1,32.81,1.05,1.4,1.55-.01,1.71-1.26.71-5.51-.59-11.62-3.25-16.47-1.31-2.4-5.12-5.74-5.79-7.91-3.68-11.81,8.09-12.9,16.75-12.05ZM358.26,92.34c4.36.61,7.34-3.77,11.56-3.5,3.62.23,9.63,6.18,13.95,7.55,1.56.49,10.5,2.43,10.45-.19s-6.43-1.96-7.92-2.34c-9.67-2.46-14.12-12.85-24.91-5.66-.71.48-4.19,3.22-3.13,4.14ZM375.15,113.03c-2.79.77-3.71,6.19-.16,6.78,6.05,1,5.96-8.38.16-6.78ZM396.47,120.31c4.07-7.07-5.56-9.47-6.52-4.4-.89,4.67,2.34,4.28,2.61,5.3,1.54,5.96-3.29,22.31,6.83,22.53.28-3.82-4.02-5.83-4.99-9.15-.33-1.12-.45-2.63,1.12-1.98,1.08.45,7.63,7.99,7.97,9.17,1.7,7.81-2.2,35.27,1.53,40.45,1.91,2.65,6.69,3.58,5.42-.28-.43-1.32-2.89-1.11-3.36-3.5-1.78-9.16,2.74-32.61-1.7-39.43-3.96-6.09-10.19-7.47-10.35-17.19-.02-1.54,1.24-1.21,1.42-1.54ZM411.39,139.47c-.2.21-.07,2.94.18,3.67,1.42,4.22,5.02.71,4.04-2.29-.51-1.56-3.84-1.77-4.22-1.38ZM365.96,145.47l-14.1,11.17c-.77,1.21-3.32,7.19-.88,7.67,1.83.37,3.73-5.28,5.1-6.88,3.16-3.69,8.86-5.92,9.88-11.96ZM398.53,145.47v50.13c0,.77-1.59,3.11-.85,4.71,3.08-1.97,3.25-8.77,3.46-12.38.48-8.05,1.15-34.07-.65-40.6-.42-1.53.27-2.21-1.96-1.86ZM395.96,153.18c-1.65-.25-2.3.67-2.57,2.15-1.62,8.89,1.66,22.88-.02,31.68-.49,2.58-4.59,5.6-5.86,7.85s-1.55,5.09-2.83,7.45c-1.2,2.22-9.93,11.24-11.88,12.12-3.49,1.58-11.21.32-14.89.48-5.56.25-3.34,6.97.63,6.62,3.33-.29,2.82-3.9,3.66-4.14,2.62-.76,7.54,1.01,10.6-.39,2.24-1.02,12.13-10.49,13.73-12.83,2.1-3.08,1.82-6.31,3.55-9.31,1.7-2.94,5.87-4.45,5.87-4.84v-36.85ZM413.95,163.46v-4.28h-.84v4.28h.84ZM368.54,195.17c-1.39,1.47,2.67,4.07,5.97,1.24,1.4-1.2,1.9-3.86,3.08-5.48,4.55-6.19,12.01-14.3,12.29-22.03.04-1.04.1-3.76-1.21-3.72-1.02.03-7.17,15.44-9.14,18.26-1.34,1.92-3.23,3.15-4.53,4.89-1.15,1.55-1.18,3.71-2.53,5.18-1.56,1.7-3.79,1.49-3.93,1.65ZM413.94,165.17c-5.83-.02-5.2,8.74.5,5.2l-.5-5.2ZM335.12,203.73v18.85h2.57v-17.14h15c1.39,0,2.78,5.32,4.42,5.86,1.39.46,10.9.43,12.76.17,2.47-.34,9.86-5.62,11.03-7.82,1.91-3.59.69-7.76,1.73-11.12,1.01-3.27,10.64-8.61,8.19-11.09-.15-.15-4.1-.11-4.25.04-.18.18.06,2.27-.49,3.34-1.01,1.96-3.83,3.12-5.13,6.04-3.13,7.05.77,10.06-7.71,16.28-3.7,2.71-8.87,3.57-13.32,2.19-3.08-.95-5.13-5.89-8.11-6.45-5.34-1.02-11.31,1.34-16.69.84ZM322.05,185.09c-7.64,1.21-18.51,8.55-22.44,15.26-2.95,5.03,2.62,11.16-.42,13.3-3.63,2.55-28.91-5.53-35.66-5.65-11.73-.21-32.11,7.69-40.14,16.4-1.64,1.78-6.33,7.52-2.23,8.06,8.06-13.46,29.81-21.62,44.97-21,9.21.38,25.16,8.01,32.91,4.61,8.66-3.81.56-8.51,3.1-14.03,1.87-4.05,14.41-12.73,19.04-13.52,7.36-1.26,13.89-.3,16.09,7.5,3.4-.3,1.76-4.5.59-6.59-2.81-5.02-10.7-5.14-15.82-4.33ZM315.65,196.64c2.7,2.69,5.49-.63,3.67-3.24-1.72-2.47-6.88.04-3.67,3.24ZM324.52,194.37c-3.63.59-2.15,7,1.58,5.93,2.65-.76.98-6.35-1.58-5.93ZM326.55,226.44c1.06-5.26-.78-13.63,0-19.28h2.57c-.82,1.84.86,4.63.86,5.57v12.85c0,1.03-2.84,2.61,1.71,2.14v-25.28c0-2.92,23.98-2.78,25.7-1.71.8.5,1.5,2.96,2.14,2.98,2.33.08,2.03-5.2,1.28-6.84-4.13,2.61-29.77.59-30.84,1.71s2.98,7.92-5.99,5.15c.87,11.6,3.72,22.62-6,31.28,2.54,2.15,8.29-7.2,8.56-8.57ZM285.42,225.16h15c.82,0,11.16-10.96,11.39-11.74.41-1.39.88-9.65.99-11.95.19-3.86-3.78-3.41-4.24-1.56-.35,1.39,3.4,6.42,1.07,12.18-.62,1.54-10.64,11.36-11.78,11.36h-12.85c-.09,0-1.29,1.19-1.29,1.29v15h2.57s0-9.43,0-9.43c.68-.68,14.13.92,17.13-.44.94-.43,13.78-13.3,14.59-14.55,3.38-5.19.45-9.46.85-15.01h-2.56c-.84,4.02,1.78,8.15.21,11.78-.26.61-7.35,8.75-8.32,9.68-1.75,1.69-6.47,5.73-8.56,6.01-3.52.47-8.69-.75-11.91-.06-.9.19.04,2.55-2.26,1.72v-4.28ZM421.25,199.46c-2.7.76-.52,5.58,1.69,5.13s1.92-6.15-1.69-5.13ZM414.82,220.87c.95.95,16.59-9.25,8.99-13.7-.47,6.5-7.55,8.22-8.99,13.7ZM257.14,214.01h-3.42v4.29h3.42v-4.29ZM276.85,214.87c-5.83-.76-5.94,5.01,0,4.29v-4.29ZM412.88,221.53c2.26-2.35-.29-6.02-3.2-4.55-4.39,2.23.64,7.21,3.2,4.55ZM273.43,244.01c1.21.02,2.21.33,3.02-.84.63-.91-.28-15.35-.65-17.38-1.46-8.15-13.06-6.17-19.97-5.81-2.37.13-18.51,2-19.14,2.73-.39.44-.02,1.73-.11,2.44-1.35.28-.85-1.62-1.67-2.16-2.4-1.61-5.27.39-4.25,3.37.79,2.32,5.13.33,4.21,2.64-.59,1.47-8,6.41-9.87,8.13-4.62,4.27-8.74,9.04-12.9,13.75l1.36,5.98c1.65.4,1.65-.61,2.41-1.44,8.83-9.69,17.18-19.07,29.29-24.69-8.64-.58-14.45,7.15-20.14,12.42-1.4-.86.29-1.89.86-2.57,2.25-2.71,10.25-9.64,13.44-10.56,1.65-.47,8.95-1.43,10.56-1.43h14.14v-2.57s-24,.85-24,.85v-2.56c5.61-.08,27.97-3.84,31.29-.87.16.15,2.13,3.65,2.13,3.87v16.71ZM278.57,220.01v20.14c0,.1,1.25,1.71,1.71.87,1.78-1.26.37-16.64,0-19.74-.15-1.29-.7-2.61-1.72-1.27ZM289.71,235.43c5.59,2.27,12.07,2.35,17.75.2,1.64-.62,12.1-6.54,13.03-7.54,1.54-1.66,1.97-3.2,1.77-5.51-4.12,4.83-10.53,6.76-15.65,10.47l-16.89,2.37ZM387.4,238.01c.79,4.42,5.23,3.64,8.14,1.71,2.4-1.59,6.08-7.18,8.15-8.13,2.61-1.18,7.97-.14,11.35-.64,1.92-.29,8.28-1.81,7.48-4.5-1.1-3.67-6.7,1.59-8.31,1.95-3.58.81-7.86-.55-11.43.56-5.32,1.64-6.95,11.85-15.37,9.05ZM214.4,235.53c-1.81,2.89,2.78,6.08,4.67,3.39,2.71-3.86-3.37-5.47-4.67-3.39ZM414.81,237.15c.29-3.73-7.11-2.91-9.47-2.18-4.3,1.33-6.27,8.34-12.36,9.06-2.19.26-7.18.26-9.26-.2-3.56-.8-3.91-4.28-5.35-4.93-5.08-2.28,1.59,7.2,4.7,8.16,2.27.69,8.31.69,10.77.4,6.42-.76,9.7-9.34,12.12-10.16,1.89-.65,8.32.33,8.85-.14ZM379.25,253.43c4.72,1.34,15.53-1,20.99,0,.36-2.23-.33-1.54-1.86-1.96-4.89-1.36-13.21,1.91-17.83-.19-4.01-1.82-11.25-13.72-16.05-14.8-2.77-.63-20.09-.71-22.93-.16-2.63.51-4.18,2.86-.87,3.43,2.6.44,5.11-.83,7.67-.92,3.27-.11,14.52-.52,16.73.48,2.93,1.33,12.04,13.52,14.15,14.12ZM240.01,238.02c-.66-.62-5.17,3.12-6.01,3.84-6.95,5.93-13.01,13.48-19.75,19.68-1.77,1.93-.3,3.41,1.34,4.73,5.6-11.86,17.58-17.57,24.42-28.25ZM242.7,239.85c-2.32,3.68,3.3,7.54,5.49,3.31,1.97-3.81-4.22-5.31-5.49-3.31ZM369.4,252.58c4.25,3.59,5.94,12.18,13.23,12.91,5.94.59,21.55.78,26.13-2.25,5.46-3.62,2.42-4.22,10.77-4.66,1.32-.07,3.39.83,2.99-1.27-1.77-1.95-6.49-1.65-8.81-1.12-3.12.72-5.35,5.14-8.79,5.77-3.54.65-19.35.59-23.13.08-4.53-.61-7.67-6.3-10.67-9.46-1.84-1.94-8.16-9.55-10.03-10.11-4.84-1.44-14.85.65-20.43-.13-2.28-.32-7.67-4.43-7.18,1.27.43,4.96,4.77,1.43,7.2,1.23,3.63-.3,18.34-.48,20.64.84,1.41.81,4.34,4.61,5.95,6.08.73.66,1.9.61,2.15.82ZM408.82,252.57c5.24-.05,11.98,1.23,15.48-3.8,2.58-3.7-2.72-6.16-4.42-3.34-.76,1.27-.65,4.37-.82,4.54-.3.28-6.18.37-8.17.87-1.43.36-2.5-.86-2.08,1.73ZM241.64,246.65c-2.06-1.51-7.67,3.25-9.35,4.63-1.65,1.36-14.27,13.52-12.84,15,1.61.37,2.03-.91,3-1.71,3.19-2.64,10.2-11.04,13.29-12.41,1.9-.84,6.18.16,6.67-2.71.08-.47-.6-2.68-.77-2.8ZM402.05,252.47c1.73,2.83,6.85-2.79,2.49-4.64-2.45-1.04-3.52,2.97-2.49,4.64ZM357.4,249.15h-18.42c-.55,0-4.6,1.33-4.71,2.56,3.63,1.9,6.61.12,9.86.02,3.63-.12,12.73,1.68,13.27-2.58ZM200.59,295.85c.64,3.58-.46,8.64,0,12.42,1.29-.38,1.61-4.43,1.7-5.58.69-8.78-.27-11.48-6.83-17.14-4.48-3.86-10.9-5.28-11.84-12.22-.84-6.24,3.53-10.85,8.39-13.91.71.87-8,14.32,2.54,20.18,3.94,2.19,11.18,1.83,11.18,7.67v13.71c0,1.01-2.51,3.65,1.71,3.85.07-2.49.85-4.7.9-7.24.11-5.23-.71-18.87-2.43-23.36-2.73-7.14-7.44-1.91-5.8.64.79,1.22,3.87,1.2,4.63,3.1.22.56.25,2.73.13,2.87-.62.65-10.07-3.46-11.16-4.68-4.59-5.11-2.34-19.52,6.29-17.46,1.75.42,2.87,4.2,5.73,3.29.77-6.28-9.74-8.07-14.34-6.2-3.27,1.33-10.1,9.83-10.46,13.6-1.4,14.65,17.96,16.83,19.67,26.46ZM323.12,264.58c-1.48-1.28-18.76,4.16-22.68,3.41-2.87-.55-5.39-5.78-9.25-7.04-5.97-1.95-20.63-.21-24.62,5.33,6.88.76,18.31-5.56,24.31-2.45,2.32,1.2,6.82,7.38,9.46,7.53,2.06.12,19.02-3.1,20.81-4.03,1.21-.63,2.27-1.14,1.96-2.75ZM347.97,262.87c-2.9-3.13-18.51,4.21-8.14,4.34,1.42.02,10.03-2.31,8.14-4.34ZM275.88,282.46c.6-1.04-.34-3.27-1.16-3.3-2.08-.08-5.69,7.06-10.09,5.85-3.39-.94-16.56-17.17-18.62-15.29.56,2.66,3.63,5.05,5.54,6.87,1.74,1.66,11.21,10.35,12.4,10.73,1.58.51,2.92.61,4.54.19.49-.13,7.16-4.66,7.38-5.05ZM211.73,277.43h-1.71v26.99c0,.41,1.05,2.64,1.71,2.14v-29.13ZM180.88,281.71c-2.4-1.69-5.18,3.42-2.13,4.27,3.42.96,3.11-3.58,2.13-4.27ZM251.14,283.43c-2.41-.13-4.56,1.23-6.42,2.57-1.01.73-8.17,7.65-7.28,8.56l11.94-8.19,1.76-2.94ZM265.71,292c-5.59.56-10.54-3.33-16.06-1.07-3.34,1.37-7.57,7.91-9.66,10.9l-6.83,7.3c10.08-.31,11.34-17.13,20.88-17.07,3.38.02,9.27,3.92,11.68-.05ZM230.58,293.71c-.02,1.61-.31,3.38.78,4.79,4.26,5.5,10-6.66-.78-4.79ZM185.16,303.13c-2.62-.63-3.04.72-3.22,3.25-.46,6.33,2.81,15.66,10.08,16.46-.99-3.83-5.38-5.29-6.45-9.4-.88-3.38-.21-6.89-.41-10.31ZM196.31,303.99c-6.99-1.89-6.3,7.57-.08,5.06l.08-5.06ZM208.53,313.19c3.42,3.33,8.21-1.96,4.56-4.99-2.88-2.39-7.21,2.41-4.56,4.99Z"/>
      <path class="cls-3" d="M290.56,40.93c-5.07-3.04-12.51-2.02-15.78-6.93-.94-1.42-.84-5.57-3.09-3.77.56,2.77.94,6.89,3.49,8.51,1.95,1.24,12.35,3.35,15.38,3.9.45.08,1.21-.27,1.59.1,4.79,11.59,2.21,22.49-2.69,33.49-1.3,2.91-8.7,16.46-10.88,17.43-.98.44-9.93-6.29-10.3-3.46-.33,2.47.85,2.1,1.96,3.18,18.22,17.69,21.51,51.23,18.52,75.55-.6,4.86-3.29,11.16-6.73,14.7-2.27,2.33-12.11,8.1-15.03,8.1h-15.42c-1.84,0-.18-6.47-.43-8.57,19.38,1.87,33.82-8.57,31.7-29.13-1.7-.23-1.41-.17-1.93,1.06-1.34,3.16-.66,8.69-2.31,13.12-3.99,10.74-18.12,13.17-28.32,12.38-.66-2.67-5.79-15.24-8.98-14.56-3.63.77,2.73,9.99,3.39,12.02,1.33,4.09,1.93,8.63.94,12.89-2.13,9.14-18.09,17.12-26.2,20.07-26.47,9.61-21.78-10.73-23.99-28.26-.79-6.28-1.87-19.55-3.46-24.81-1.04-3.44-3.42-2.2-4.1.15-.66,2.29,1.94,12.73,2.32,16.19,1.04,9.34,3.72,27.11,1.43,35.49-1.89,6.9-5.74,9.78-13.08,7.01-4.8-1.81-15.62-16.58-19.52-16.45-.66.02-1.52,1.28-.87,2.56.85,1.68,7.66,6.4,9.85,9,16.34,19.4,1.63,28.92-18.42,30.39-18.69,1.38-34.41-1.32-43.97-18.56-2.05-3.69-4.12-11.57-6.97-14.45-2.56-2.58-13.61-3.53-18.32-6.53-7.16-4.56-9.28-15.06-6.85-22.86,1-3.21,4.58-5.14,6.45-8.11,3.7-5.89,3.88-13.67,6.49-18.38,1.05-1.9,4.05-2.43,3.62-5.35-10.78-.11-9.81,23.2-18.44,24.83-2.99.56-6.39-.33-9.88.4-13.4,2.81-6.31,19.43-13.67,23.24-2.44,1.26-9.33-3.24-11.15-5.17-16.64-17.62,4.21-42.2,24.87-39,.49,4.36-3.77,6.1-6,8.56-.52-1.78-2.56,0-3.36.49-6.54,3.98-10.22,6.86-9.5,15.35.15,1.77.66,4.87,2.57,5.58.01-4.35-.5-9.18,2.1-12.94.52-.76,1.75-1.12,2.19-1.63.54,1.77,2.56.03,3.36-.5,15.2-10.17,15.19-21.47,26.21-32.05,6.24-5.99,19.07-10.48,26.94-5.53,2.86,1.8,4.06,11.38,3.45,14.5-.33,1.67-5.97,7.27-7.53,9.61-11.43,17.18-12.97,33.59,9.02,42.06,1.73.66,5.88.96,6.13,1.16.42.34,1.63,8.11,2.79,10.49,4.26,8.74,19.12,12.8,28.17,13.38,2.93-2.51-13.59-7.64-14.59-8.11-14.68-7.01-14.08-20.52-4.62-32.08,8.48-10.37,24.01-12.99,35.26-5.51,1.49.99,2.23,3.34,4.5,3.72,1.3-4.44-3.74-4.49-4.28-7.27-2.29-11.76,12.09-31.55,23.62-34.66,27.18-7.33,23.13,29.64,25.23,46.22,3.97.56,4.36-3.45,4.35-6.43,0-16.87-5.91-35.27-6.92-52.27-1.37-22.97,2.99-57.89,26.19-68.91,4.22-2,.64-4.84-2.43-4.22-9.24,1.87-22.16,23.24-23.77,32.44-1.31,1.16-4.75-4.5-5.97-5.59-6.37-5.64-15.31-10.25-24.02-9.83-.96,3.36,2.72,2.84,5.73,4.13,6.2,2.64,18.3,9.54,21.05,15.8,1.78,4.04-2.28,17.61-1.94,22.92-8.47-4.55-18.65-7.19-28.27-5.15,1.89-6.21,2.84-13.26.16-19.43-.54-1.24-4.93-7.32-5.31-4.12-.36,3.07,3.43,8.37,3.42,12.85-.03,16.28-16.31,15.33-21.42,28.7-5.34-6.32-14.55-10.13-17.8-17.74-1.04-2.44-.4-7.41-3.66-5.01-4.1,3.02,2.82,12.52,5.64,15.02,7.92,7.06,15.75,7.16,9.99,20.31-2.11,4.81-4.21,7.87-9.53,9.32-2.08.57-11.47.36-6.37,3.7,4.47,2.94,12.94-.4,16.2-4.15,5.42-6.22,5.21-16.12,11.96-24.03,8.93-10.48,19.95-13.55,33-10.27-5.35,1.17,1.37,3.67,2.15,4.27,2.39,1.87,3.08,4.64,1.33,7.36-3.72.31-6.71-.83-10.67-.4-8.2.88-15.65,5.48-21.06,11.5-5.13,5.7-11.91,20.97-18.02,23.11-3.9,1.37-16.18,2.05-20.12,1.27-1.98-.39-2.69-2.55-4.14-2.43-4.07.33-3.86,5.79-.64,6.39,2.03.37,3.39-1.26,5.59-1.4,6.53-.43,16.8,1.05,22.66-2.18,4.24-2.33,9.8-14.81,13.8-19.61,6.62-7.94,15.38-13.96,26.1-14.22,7.66-.18,10.92,4.69,9.88-7.25-.16-1.83-.83-3.17-1.73-4.69,2.47,1.09,6.41,2.24,7.34,5.09.47,1.43,1.76,17.32,1.22,18.05-22.33-14.26-44.62,9.96-47.94,31.35-16.92-4.49-32.81,3.51-39.61,19.47-2.34,5.49.06,7.8-8.13,4.17-2.98-1.32-4.92-3.28-7.13-5.29h7.71c-7.44-5.71-10.8-10.15-6.84-19.7l2.75,9.66c.23,1.01,1.63,2.03,2.37,1.47.49-.37,3.79-9.75,5.15-11.13-3.93.14-4.09,5.2-6.85,6.85-2.16-12.42,11.11-15.19,15.57-24.27,2.82-5.73,4.5-16.34,1.1-21.97-1.49-2.47-5.98-4.81-6.87-7.7s-.15-6.42-.39-9.47c-3.71-.28-2.88,7.18-2.37,9.65.99,4.82,6.8,7.26,7.97,11.74,1.88,7.22-1.47,22.49-9.47,24.86-4.12,1.22,3.09-6.39,3.37-6.91.96-1.75,3.59-9.7-1.21-8.5.75-1.57,3.97-4.48,2.57-5.99-2.18-2.35-4.45,4.89-5.98,5.13-3.83-13.94-3.57-27.56,2.41-40.85,5.75-12.76,19.86-22.39,33.3-14.16,3.37,2.06,5.57,6.21,9.69,7.02.9-5.3-6-8.33-6.02-13.25-.09-20.28,21.62-26.03,38.12-27.05,10.92-.68,20.76,3.21,28.72-6.41,1.18-1.43,5.54-8.62,4.3-9.83-2.3-2.25-7.15,6.84-8.54,8.16-6.45,6.18-17.78,3.28-26.15,3.84-20.15,1.34-40.94,8.96-40.72,32.55-11.02-5.41-23.11-.52-30.81,8.17-9.13,10.31-10.84,23.92-11.17,37.25-13.3-4.92-25.07,1.23-33.39,11.59-2,2.49-6.4,11.9-7,12.28-1.12.71-5.54-.34-6.68-1.21-1.4-1.05-3.17-5.92-3.4-7.74-1.56-12.35,11.34-33.21,25.25-31.24,2.22.31,3.31,1.95,5.52,1.75-1.05-13.2,9.39-18.85,21.43-17.13v-12.42c0-6.83,16.82-19.28,23.56-19.28h12.85c.35,0,1.86-1.29.44-2.16-1.69-1.03-5.66-1.18-7.73-1.27,2.52-9.65,14.14-17.47,23.99-18-.48-4.93-7.69-1.7-10.5-.65-5.26,1.97-9.86,5.42-13.47,9.67-1.64,1.93-3.59,6.53-5.4,7.53s-4.6,1.18-6.6,1.9c-5.65,2.04-5.26,3.55-12.41,2.09-5.02-1.03.71-7.39,2.53-9.4,11.96-13.25,35.6-20.53,53.13-18.84,4.06.39,19.4,6.73,20.14,5.99,1.63-1.64-2.48-4.06-3.51-4.62-4.09-2.2-9.26-2.88-13.61-4.37,11.76-10.37,31.64-12.56,45.85-6.44l-6.38,3.91c-5.63,8.58,5.35-.51,8.52-1.76,13.46-5.33,23.01,2.05,30.82,12.02,4.46,5.69,7.79,10.56,8.48,18.07.99,10.59-4.29,13.86-8,22.63-5.66,13.38-6.24,27.87-3.03,41.95-.66.55-9.72-6.63-11.97-7.3-.87-.26-6.1-1.41-5.16.87.53,1.3,12.23,8.08,14.58,10.28,4.97,4.66,10.18,15.7,12,22.27,1.61,5.8,1.53,14.03,3.4,18.87,1.59,4.1,3.47,1.92,3.5-1.71.16-20.89-12.81-36.29-13.78-57.42-.83-18.17,7.91-38.1,21.41-50.12.51-.46,3.31-.67,3.43-2.56-2.62-.75-3.65.96-5.14,1.71-2.44,1.22-4.58,2.8-6.85,4.28-.51-7.92-2.53-15.79-7.35-22.22-3.49-4.65-16.01-13.91-21.6-15.24-5.1-1.22-10.53-.42-15.62.62,1.09-4.84,9.86-7.71,14.14-7.78,4.01-.07,8.78,1.69,12.81,1.82,13.19.41,19.63-5.29,32.79,4.05,5.37,3.81,11.84,14.2,12.23,20.76ZM231.18,32.5c-3.18.96-4.55,5.96-.37,7.78,8.09,3.53,8.21-10.16.37-7.78ZM264.12,33.34c-.96.6-2.71,7.69,2.02,7.67,6.93-.04,4-11.43-2.02-7.67ZM274.85,152.59c-3.95-5.66-3.25-12.02-5.09-19.3-2.47-9.79-10.39-22.01-10.08-31.11.13-3.94,2.99-18.56,5.16-21.42,2.88-3.81,10.48-1.58,15.82-9.03,6.52-9.09,6.05-18.62-.81-27.36-4.68-1.08,1.3,8.27,1.7,9.44,1.67,4.87,1.38,7.39-.59,12.23-4.55,11.18-15.17,7.77-18.56,13.15-2.28,3.63-5.3,20.2-5.33,24.74-.09,12.8,14.42,29.99,13.01,46.28-.29,3.41-3.42,3.02-2.3,7.34,1.42,5.51,11.26,1.07,7.07-4.94ZM237.53,90.53c4.62,2.88,4.04-4.82,4.58-6.81,1.91-7,10.24-23.07,9.86-28.55-.19-2.75-3.06-7.88-3.39-2.69-.68,10.71-4.28,19.95-8.94,29.63-.72,1.5-2.66,3-2.93,4-.26.96.33,4.12.82,4.43ZM245.15,53.79c-3.15-.85-3.8,9.05-3.42,9.42,3.21,3.13,4.12-7.6,3.42-9.42ZM208.95,66.42c1.5-1.48,1.06-5.19-.64-6.22-2.26-1.37-5,.35-7.3.43-13.43.47-39.59-.72-39.9,18.43-.08,4.73,2.74,6.66,3.3,10.5.99,6.73-6.1,16.13-13.48,13.45-4.04-1.47-4.78-5.83-7.31-8.11-2.58-2.32-8.64-4.71-11.87-2.62-1.32.85-3.12,5.03-.58,5.21,5.59-10.08,11.05,2.04,14.66,5.49,9.43,9,22.78-3.08,21.31-13.56-.64-4.6-6.46-8.21-.79-12.89,1.46-1.2,6.51-2.73,6.82-3.05,2.81-2.88-7.3-.82-7.71-.85,5.36-8.13,27.42-11.78,35.4-8.37,1.39.6,4.22,6,8.09,2.17ZM232.29,64.92c-2.05-.25-2.88,2.1-3.78,3.5-15.14,23.54-11.56,59.14-8.1,85.93.39,3.02.94,6.13,1.62,9.1,1.49.2.81-1.95.85-2.98.41-10.86-1.64-22.1-1.71-32.99,1.15-1.3,18.41,12.15,19.71,14.13.96,1.47,3.25,8.08,3.21,9.6-.03,1.28-1.35,2.06-1.5,3.3-.64,5.07,6.9,7.16,7.56.65.23-2.28-3.3-3-3.9-3.93-3.5-5.4.75-7.96-8.4-16.02-2.95-2.6-17.17-11.33-17.55-13.3-1.05-5.53.18-19.49,1.11-25.48.14-.9.34-3.98,1.89-3.23,2.77,1.35.49,6.07.45,8.14-.32,14.52,1.27,22.75,16.27,27.83-2.52-3.01-5.97-5.12-8.54-8.16-2.3-2.71-4.59-5.87-5.09-9.48-.44-3.2-.17-13.19.94-16.05.77-1.98,3.6-.94,3.35-5.3-.24-4.13-3.71-4.73-6.93-3-1.69-2.22,7.6-18.84,8.56-22.27ZM273.42,64.92c-.77-.88-2.46,1.27-3,1.71-1.71,1.39-5.05,3.86-5.56,6,2.8.71,10.85-5.1,8.56-7.7ZM145.7,70.99c-.28-.44-8.86-2.37-10.04-2.43-2.26-.11-5.75,1.22-2.42,2.45,1.52.56,12.05,2.96,12.51,2.48.09-.09.12-2.23-.05-2.5ZM132.04,74.35c-6.4-1.09-15.25,2.03-15.41,9.42l5.7-5.01c2.53-1.77,6.09-1.41,8.65-2.48,1.23-.52,1.3-.2,1.07-1.93ZM182.6,78.63c-1.24,1.09,5.43,4.81,6.45,5.97,6.15,6.98-1.82,7.6,1.71,11.99,2.92,3.63,6.86,1.35,6.44-2.92-2.58-2.82-2.68-7.18-4.78-9.86-1.15-1.47-8.53-6.3-9.81-5.17ZM126.04,99.2c-2.22-.41-1.51.4-2.1,1.7-2.4,5.32-3.2,14.35.39,19.29,1.92,2.64,6.09,4.03,7.64,7,1.4,2.66-1.5,6.62,1.3,8.93,2.94,2.44,6.95-1.44,5.23-5.21-2.93-1.64-3.92-6.62-5.84-8.33-1.33-1.18-3.75-1.24-5.27-2.88-5.74-6.15-1.5-13.58-1.33-20.52ZM105.48,100.06c-3.59-.08-8.25-.48-11.09,2.18-3.02,2.83-1.16,6.86-1.78,10.22-1.12,6.08-15.26,8.43-19.16,11.52-.82.65-.7,2.45-.53,2.63.5.51,3.12-.35,4.04-.67,2.2-.74,15.63-7.49,16.97-8.74,4.93-4.61-1.85-14.46,8.12-14.59l1.28,3.42c1.54-1.55,2.15-3.86,2.15-5.99ZM269.15,100.05h-4.29v4.29h4.29v-4.29ZM72.91,129.2l-5.99-1.73c-1.8,4.05,5.23,6.6,5.99,1.73ZM95.21,159.18c2.83-2.67,5.55-9.44,5.99-13.28,1.64-14.26-1.55-16.4-14.03-10.6-12.63,5.87-14.65,21.64-23.73,28.54-1.61,1.23-4.29,1.41-5.08,3.05,15.05.43,19.79-28.24,33.07-29.96,11.49-1.49,5.71,16.67,3.78,22.25ZM232.29,148.9c-1.5-.16-2.65-.14-3.32,1.35l3.75,43.21c.73,0,1.24-3.08,1.3-3.85,1.03-13.29-1.27-27.4-1.72-40.71ZM178.86,154.15c-2.53.85-2.18,7.07,1.73,7.4,5.29.44,5.76-9.91-1.73-7.4ZM225.45,164.32c-1.79,7.63,2.59,21.94.68,28.52-.77,2.65-10.27,8.23-12.97,8.07-3.17-.18-7.97-4.12-8.92-7.25-1.18-3.9-2.47-20.61-1.89-24.6.33-2.28,2.77-2.71,1.04-6.26-2.12-4.36-7.96-.55-6.74,3.23.6,1.84,2.59,2.98,3.05,5.59,1.24,7.12-.07,22.01,4.72,26.99,8.3,8.65,18.49,1.94,25.18-4.92-1.92-8.51-.35-19.12-2.42-27.31-.36-1.44.86-2.5-1.73-2.08ZM89.63,161.75v.86c.56-.29.56-.57,0-.86ZM84.91,191.73c-.81-3.13-2.54-6.41-2.47-9.76.13-6.45,5.21-12.18,6.34-18.49-4.89,6.49-11.65,18.47-6.61,26.29.74,1.14,1.02,2.32,2.74,1.97ZM163.75,225.16c3.56-2.26,1.34-7.47-.5-10.22-.98-1.48-11.87-11.61-13.29-12.42-3.45-1.96-10.91-1.52-11.93-6.95-1.66-8.89,9.1-13.04,16.52-11.35,4.55,1.03,6.7,7.66,10,10.56,1.87,1.64,4.65,2.78,6.81,4.33,2.82,2.01,4.16,5.43,8.24,5.57,2.56.08,6.43-2.18,7.47-4.57,2.53-5.85-1.47-26.3-4.93-32.34-.6,9.84,3.92,21.58,2.15,31.27-.57,3.11-4.98,3.73-7.17,2.03-2.72-3.83-8.52-6.27-11.29-9.27-2.22-2.4-2.75-5.35-5.96-7.75-13.42-10-33.72,8.33-21.42,17.14,3.07,2.2,5.96,1.68,8.92,3.07,1.52.71,13.65,11.34,14.65,12.77,1.95,2.82,1.96,4.72,1.72,8.14ZM87.48,193.45c1.9-.97,14.66,3.83,14.55.43-.06-1.87-10.68-2.56-12.42-5.39-1.99,1.02-2.38,2.87-2.14,4.96ZM159.46,232.01h-23.56c-6.71,0-14.36-4.65-18.4-9.87-4.49-5.79-2.49-4.63-2.54-10.3-.05-5.23-8.39-5.53-8.7.04-.27,4.83,2.52,3.62,4.75,5.61,2.39,2.15,4.24,7.13,7.74,10.25,3.09,2.76,10.56,6.84,14.58,6.84h26.13v-2.57Z"/>
      <path class="cls-2" d="M333.51,354.65c.18-.27,3.68-1.08,4.76-1.67,10.36-5.65,15.98-18.28,23.83-26.72,9.26-9.96,21.67-16.63,35.23-18.75,17.22-2.69,34.03,4.99,51.12,6.97,8.29,7.61,5.37,21.79.46,30.9-22.08,40.97-54.06,54.93-96.38,30.73-4.41-2.52-23.31-14.89-19.03-21.47Z"/>
      <path class="cls-3" d="M372.82,297.13c-.48,5.86-1.07,6.47-6.26,9.59-7.11,4.27-25.71,8.25-33.45,5.7-1.57-.52-1.72-3.67-3.52-3.27-8,10.37-20.36,10.29-31.28,14.15-7.15,2.53-14.33,8.43-21.74,11.68-16.79,7.38-44.99,17.79-62.51,11.65-1.2-.42-13.03-5.7-10.9-7.51,10.7,1.54,16.94-6.41,25.12-10.44,4.97-2.45,13.25-4.09,17.69-7.16,5.36-3.7,7.04-16.15,10.52-17.76,2.87-1.33,6.48-.25,9.55-.74,11.64-1.84,11.75-4.77,20.49-9.5,7.06-3.82,19.05-.84,27.63-1.51,15.42-1.2,19.98-8.61,31.83-14.44,8.49-4.18,14.64.13,22.95.73,11.44.82,25.17-3.71,36.45,1.26,5.89,2.59,15.57,12.36,13.33,19.33-.37,1.14-2.48,3.86-3.59,4.07-.6.11-9.59-2.21-11.89-2.39-6.58-.51-14.04.71-20.48-.08-3.66-.45-6.46-2.95-9.07-5.07-.08-.06.24-1.27-.56-1.75-1.31-.79-3.85-1.31-5.43-1.67l5.14,5.14ZM390.39,283.42c-5.06-.87-12.24.64-17.57,0v2.57h15.85c2.34,0,5.5,7.3,7.87,8.41,4.23-.33,8.97.73,12.96.84,3.77.1,3.36-3.51,1.34-4.03s-8.35,2.13-12.29.34c-2.47-1.12-6.05-7.76-8.16-8.13ZM359.12,290.28c-1.45-.82-12.52.45-10.28,3.42.99,1.31,12.91,2.22,10.28-3.42ZM337.58,292.11c-2.28-1.45-7.7,3.06-10.56,4.2-4.32,1.72-19.01,5.68-23.1,5.09-1.75-.25-3.36-2.02-5.02-1.58-.39.1-5.83,3.93-6.63,4.58-7.99,6.46-8.14,11.11-18.82,16.35-1.23.6-2.15-.19-1.71,2.09,10.25,2.55,18.07-16.16,24.85-17.66,2.01-.45,2.63,1.5,3.74,1.32.73-.12,1.55-1.82,2.88-2.31,3.8-1.39,10.92-1.14,15.66-2.33,3.74-.94,9.45-4.28,12.62-4.53,1.88-.15,4,1.1,5.67.73,1.53-.34,1.49-5.29.45-5.95ZM335.12,299.71c-6.89,1.08-13.61,3.28-20.39,4.88-3.81.9-10.92.04-11.31,4.53,8.72-2.44,20.21-3,28.48-6.22,1.44-.56,3.54-1.03,3.22-3.2ZM269.78,312.68c-5.68.79-3.24,9.04,1.35,7.33,5.27-1.97,2.17-7.82-1.35-7.33ZM267.42,323.7c-12.77,3.77-27.05,3.45-38.98,9.42l-9,9.42c5.1.22,7.44-4.34,10.73-6.83,7.89-5.98,23.14-5.26,32.98-8.15,2.45-.72,5.08-.76,4.27-3.86Z"/>
      <path class="cls-3" d="M449.94,202.02c3.74-11.02,9.18-17.55,3.84-29.98-.7-1.64-1.55-4.55-3.84-4.29,1.74,9.6,2.28,17.14-1.48,26.34-2.21,5.41-1.73,4.74-3.01,10.73-1.18,5.53-4.8,11.95-10.08,14.34v-14.14c0-1.09-4.58-10.12-5.63-11.51-1.9-2.52-7.18-5.31-7.28-5.76-.58-2.49,4.07-18.03,4.38-22.97.68-10.89-2.32-28.53-7.14-38.34-1.62-3.31-9.32-12.74-9.06-14.62.51-3.64,5.69-5.43,8.88-5.77,14.98-1.61,27.6,12.73,23.57,27.42,1.57.79,3.61-1.67,3.86-1.66,1.16.04,2.46,4.3,2.99,5.09-.17,1.67.64,5.46-.8,6.48-1.56,1.1-9.34-.93-8.62,2.5.52,2.47,8.41,1.04,10.28.44-2.29,6.15,2.47,5.25,6.28,7.85,4.94,3.37,7.55,10.69,7.45,16.53-.09,5.07-3.75,10.6-3.49,15.44.45,8.24,5.33,16.01,4.31,26.58-.9,9.41-8.08,13.14-9.24,18.18-1.6,7.01,1.16,16.2-.99,23.86-4.24,15.09-15.37,13.7-28.32,11.51,6.97-7.03,12-16.73,11.9-26.89-.03-3.18-3.51-13.64-3.25-14.52.39-1.32,6.35-4.14,7.63-5.71-1.26,3.44-1,11.92-.86,15.86.04,1.03-.64,3.19.85,2.98,1.46-4.86.45-9.8,1.97-14.74,1.62-5.26,5.36-8.34,6.39-15.03.2-1.28,1.48-6.93-1.49-6.21ZM423.5,117.31c-3.36,5.27,7.62,7.67,5.74,1.33-.76-2.56-4.83-2.76-5.74-1.33ZM434.52,151.46v-15c0-1.82-2.9-11.5-4.24-12.71-.92-.83-2.57-.97-2.62-.13-.23,3.5,4.83,11.45,4.77,15.79l2.09,12.04ZM437.95,169.03c.59-5.83-.43-12.49,0-18.42-1.67.34-1.51,1.72-1.72,2.99-1,6.15-.71,12.45-1.96,18.6-.67,3.3-3.4,8.85-3.25,11.39.23,3.95,10.45,13.72,9.52,20.14,6.85-5.34-5.51-16.53-6.03-20.18-.41-2.88,3.08-10.82,3.45-14.52ZM449.09,232.01c-4.42.59-2.24,9.37-2.58,13.27-.8,8.95-5.38,11.37-10.28,18,5.54,1.62,12.86-9.43,12.86-13.7v-17.57Z"/>
      <path class="cls-2" d="M299.98,327.98c.24,7.85,4.19,13.89,9.09,19.62,1.02,1.19,3.23,1.7,3.66,3.26.4,1.41-.85,5.06-.76,7.5.31,8.78,5.1,19.41,11.11,25.78,3.12,3.3,8.77,6.11,11.61,8.96,2.69,2.7,5.43,18.25,6.85,23.14,1.34,4.6,7.38,20.35,7.22,23.62-.05.96-.41,1.57-1.16,2.15-.31.24-6.75,3.07-7.12,3.16-3.46.89-10.25.66-12.6-2.41-4.22-12.09-8.91-24.68-16.06-35.35-7.85-11.71-21.45-19.69-23.83-34.01,2.22.47,16.76.31,13.7-4.27-.82-1.23-10.72.12-13.27-.03-8.66-.52-16.82-5.35-22.31-11.96-1.2-1.45-5.75-8.46-6.33-9.97s.31-1.04,1-1.38c4.35-2.14,10.63-3.19,15.43-5.16,8.48-3.47,15.51-8.8,23.76-12.65Z"/>
      <path class="cls-3" d="M30.07,201.16c.77-2.47-2.57-2.06-3.3-1.58-.37.24-2.31,7.08-2.47,8.23-.34,2.46-1.62,9.61,2.35,9.63.18,13.52,9.35,20.87,22.75,19.74,2.95-.25,8.51-2.85,10.07-2.47,1.03.25,8.62,5.56,11.75,6.73-1.1.32-3.53-1.33-1.7,1.27,1.34,1.89,6.46,8.29,8.3,8.84,5.03,1.5,14.24-1.04,19.96,1.03.69-2.96-1.18-3.18-3.84-3.43-8-.73-16.56,3-20.15-6.85,9.2,2.7,13.11,2.63,22.28.86,1.65,3.7,15.05,18.73,17.74,19.53,5.57,1.65,16.54-1.05,22.78.36,3.88.88,6.99,7.33,9.79,8.2,5.37,1.67,13.43.71,19.1,1.04-.17.51-.83,2.44-.86,2.57-5.54-.85-14.98,1.25-19.95-.18-3.31-.95-11.13-9.86-14.77-10.94-2.35-.7-1.18,2.18,0,3.43.99,1.03,12.27,9.86,13.07,10.06,5.77,1.47,15.4-.65,21.64.21-.4,3.48,1.62,6.34-2.96,6.9-17.92,2.19-39.16-2.75-57.49-.86-12.28-2.57-29.58,1.32-40.94-4.47-1.72-.87-7.66-5.68-8.29-7.14-.59-1.38.48-1.16,1.07-1.46,3.82-1.94,9.45-2.84,13.49-4.96-.77.86-4.16,5.48-1.27,5.99,1.99.35,3.05-3.46,4.24-4.36,1.12-.86,3.28.6,5.64-2.88,2.57-3.78-.42-3.14-3.47-3.03.49-.52,6.45-7.47,3.85-7.72-1.67-.16-9.63,6.72-12.4,8.16-17.66,9.18-35.43,5.47-37.78-16.2.45-1.62,11.81-.7,9.48-3.94-.34-.47-8.96-1.33-11.12-2.16-15.99-6.13-13.47-34.68-4.31-45.42.9-1.05,6.09-4.68,6.87-4.33.44.19,4.93,4.89,5.01,5.33.42,2.17-3.53,5.07-4.16,6.3ZM67.77,245.72c-8.37,10.28-23.17,11.04-30.41-.85-.89,10.6,12,11.01,19.75,10.31,5.64-.5,11.02-3.02,10.67-9.46ZM97.77,260.29c.67.55,6.48,1.24,6.86.86.18-9.71-4.56-4.54-9.01-4.22s-10.91-2.02-15.84-.92c-.74,2.17,2.6,2.31,3.95,2.46,3.88.45,10.49-.7,13.49.08.96.25.46,1.65.56,1.74-4.08,2.63-11.25.66-14.55,2.16-.58.26-9.17,7.95-9.49,8.51-.94,1.68-1,2.89-.81,4.75,1.21,1.39,9.29-9.85,11.15-10.69,4.62-2.1,14.86,2.95,13.69-4.73ZM114.9,267.15c-12.46.88-29.82-6.38-35.98,8.56,3.73.04,7.96-6.07,10.02-6.68,6.08-1.81,16.79,1.96,23.81.68,1.47-.27,2.41-.92,2.14-2.56ZM84.91,277.42c11.85.62,23.74.49,35.6.83,2.47.07,14.33,2.58,14.96-.41.26-1.22-1.01-2.06-2.14-2.12-16.17.03-32.36.24-48.41-.86v2.56Z"/>
      <path class="cls-3" d="M479.08,216.59c4.38-3.13,6.21-9.45,9.01-12.85.77-.94.95-1.15,1.71-.01,5.27,7.9,1.03,17.35,1.2,25.28.1,4.56,2.89,9.18,2.7,14.58-.12,3.54-1.6,8.83-3.93,11.57-1.17.27-10.74-11.09-13.26-5.56-.79,1.75,5.36,2.65,6.03,4.23,16.04,13.12,5.35,40.33-7.74,51.46-14.7,12.5-36.14.38-53.06-.52-.81-1.18,1.58-6.88,1.67-8.96.3-7.04-6.09-11.87-10.31-16.67,7.92,2.93,21.98-1.12,29.38,1.03,3.02.88,6.54,9.01,9.37,10.33,2.92,1.37,7.96.49,11.19.45l15.2-15.65c1.53-2.31,4.65-13.58,2.52-15.02-4.31-2.92-3.33,8.04-3.61,9.65-.53,3.02-12.86,17.83-14.97,18.44-1.75.51-8.03.48-9.67-.26-2.53-1.15-5.48-8.83-8.33-9.67-10.11-.34-20.11-1.51-30.24-1.04.68-1.88,2.02-2.36,3.81-2.61,7.07-.97,18.12.12,25.79.01,1.42-.02,2.98.78,4.14.65,1.92-.21,6.11-3.38,2.24-4.9.12-.09.03-1.2.53-1.62,13.59-11.37,6.9-23.01,9.93-36.33.14-.62,6.23-10.46,6.78-10.79,2.36-1.37,6.56,4.5,7.51,6.43,2.51,5.13,1.58,10.25,2.69,15.74,2.55-1.16,2.24-4.63,2.56-6.85,2.54.62,3.41-5.94,3.42-7.28.01-2.27-2.52-12.18-4.28-13.29ZM459.38,285.14c4.34-2.25,12.94-11.34,13.65-15.91.53-3.41,1.28-18.91.83-22.15-.4-2.97-2.94-6.1-3.11-7.89-.14-1.46,1.01-2.94.49-4.85-.97-3.55-7.66-3.37-7.66,1.52,0,4.69,4.43,3.17,5.32,4.38,4.53,6.16.35,21.39,1.57,28.99-.81,5.13-10.48,10.34-11.08,15.9ZM477.36,283.43c-1.34-1.49-8.12,9.36-9.8,10.32-2.23,1.27-13.28,1.25-15.94.43-2-.62-5.95-5.14-7.69-6.88-.42-.42-5.95-7.38-5.13-2.59.13.78,9.6,11.68,10.32,12.01,2.11.97,4.76-.64,7.26-.53,3.74.16,6.62,1.83,10.76.55,2.14-.66,11.77-11.61,10.23-13.32ZM445.65,298.84c.1-5.14-11.28-14.85-14.4-8.83-.36.69-2.81,11.22-2.73,11.82s1.4,1.8,2.15.46c1.48-2.64.18-10.58,4.3-11.2,6.03-.9,8.95,9.58,10.68,7.75ZM437.94,294.56c-3.55-.78-4.37,2.82-2.33,4.92,1.61,1.66,14.63,5.16,15.19,4.5.17-.2.3-2.08-.49-2.64-3.1-2.22-13.23.69-12.36-6.78Z"/>
      <path class="cls-2" d="M164.59,288.56c-.55,3.48,4.97,7.75,5.18,9.9.16,1.65-2.18,5.97-2.51,8.63-.92,7.45,1.06,13.51,3.4,20.38-13.09,6.67-31.67-2.46-42.33-10.76-8.67-6.75-13.91-17.04-13.43-28.13h49.69Z"/>
      <path class="cls-3" d="M374.54,72.63c-.69-.36-3.32-.73-3.43-.87-.54-.73,2.24-4.1,2.74-5.39,3.3-8.5.86-14.1-6.99-18.2-5.93-3.1-4.75-1.63-9.89-6.39-4.6-4.26-12.55-3.27-17.55,0l-4.3-12.85h12.42c5.08,0,20.77,7.72,23.94,12.05,1.19,1.63,2.61,6.21,3.63,6.87,2.26,1.45,5.89.38,8.36.86,7.62,1.49,17.84,7.25,22.29,13.7,6.94,10.05-5.99,4.72-8.08,11.93,3.44.07,6.37-1.53,9.82-1.74,17.97-1.09,35.88,17.84,37.31,35.16-5.98,2.2-9.94-2.59-14.57-5.99-.09-14.7-17.04-21.7-29.13-16.28-10.1-3.75-16.51-6.79-24.85-12,2.05-2.79,6.03-10.55,9.78-10.3,2.41.16,4.6,3.08,8.21.88.64,3.4-3.04,6.25-3.44,8.99-.59,4.11,4.75-1.05,5.79-3.65,3.56-8.89-3.95-13.37-4.07-10.9l.86,4.7c-10.64-8.3-14.89.24-18.84,9.43Z"/>
      <path class="cls-3" d="M69.49,177.17c-2.19,11.75-1.57,22.9,9.67,29.31,4.19,2.39,15.18,4.49,17.36,6.63,2.85,2.8,3.75,9.1,5.37,12.62,3.13,6.79,9.22,8.4-2.8,12.32-21.96,7.16-51.24-7.87-48.46-33.04.64-5.78,5-9.33,5.82-13.03.92-4.15-1.04-8.41,2.27-12.3,2.83-3.32,6.84-2.52,10.76-2.51ZM59.2,199.45c-4.09.4-3.67,5.86-3.21,8.79,2.46,15.7,23.6,24.15,37.55,20.83,2.11-.5,4.56-1.55,2.93-3.92-18.01,6.14-41.55-4.1-37.27-25.69Z"/>
      <path class="cls-2" d="M386.53,304.85l-18.51,9.75c-14.55,9.21-28.59,46.93-50.15,34.49-4.3-2.48-17.81-18.18-12.74-22.41,1.67-1.39,13.45-3.84,17.33-5.8,2.17-1.1,5.12-4.13,6.65-4.56,2.82-.79,16.32.88,21.63.28,7.24-.82,15.1-4,21.14-7.99,1.52-1,4.66-4.57,4.99-4.65,2.7-.68,6.66,1.58,9.66.89Z"/>
      <path class="cls-3" d="M114.05,64.93c-6.74,6.65-10.82,14.24-11.19,23.93-9.55-.22-19.16,5.24-19.67,15.48-7.5-1.18-15.51.04-23.13.85,2.68-24.12,30.25-43.96,53.98-40.26ZM102.05,75.21c-5.27-.25-9.29-.49-13.31,3.39-2.03,1.95-2.54,4.19-4.22,6.07-3.48,3.9-13.51,9.01-9.47,16.26,1.68,3.01,2.83-5.37,3.21-6.24,2.61-5.92,10.39-8.37,11.37-10.05.81-1.39-.03-3.42,1.25-4.74,1.97-2.04,7.59-1.71,10.11-2.75,1.03-.42,2.15-1.05,1.06-1.93Z"/>
      <path class="cls-3" d="M156.03,245.72c1.33,10.02,15.18,4.72,22.28,6-1.15,1.12-2.09,3.05-3.43,4.28-.6-1.96-2.21-1.67-3.81-1.76-3.9-.22-11.28.86-14.45-.11-2.04-.62-4.88-7.67-9.15-6.69-1,.94,5.87,8.79,7.45,9.25,2.22.65,14.97,1.4,17.39,1.03.36,1.23-.53,1.83-.86,2.57-6.74-.87-16.35,1.19-22.69-.02-1.83-.35-2.7-1.78-3.87-2.99l2.56-1.7c-1.92-4.17-17.29-1.02-21.67-2.32-1.83-.54-12.61-13.66-14.31-11.82-.8.87.65,2.66,1.24,3.46.97,1.32,11.4,11.54,12.21,11.78,4.18,1.24,11.83-.84,15.93.16.55.13,2.85,4.31,4.42,5.2,4.35,2.47,18.72-.15,24.46.81-.79,1.59-1.84,4.24-2.57,6-5.48-.66-13.07.99-18.24-.18-3.9-.88-6.93-7.53-11.36-8.35-6.01-1.11-16.74,1.36-22.06-.22-2.83-.84-13.77-14.22-16.88-16.96,3.11-.77,10.88-5.09,11.56-5.11,1.18-.04,7.43,4.01,9.64,4.91,11.78,4.8,23.91,4.19,36.21,2.77Z"/>
      <path class="cls-2" d="M328.18,356.35c.15.12.51,2.65,1.03,3.66,9.24,18.06,26.39,21.38,42.52,30.32,4.06,2.25-6.67,4.26-8.77,4.47-14.63,1.48-29.91-5.14-38.96-16.72-4.03-5.15-9.48-17.49-6.35-23.61,1.82,1.48,10.11,1.52,10.52,1.87Z"/>
      <path class="cls-3" d="M52.35,130.04c-1.39,6.54-1.16,11.87,1.71,17.98-9.37,1.35-15.85,5.81-21.87,12.85-3.63.82-3.15-12.01-2.96-14.11,1.54-17.61,17.28-37.59,35.98-37.28-5.45,5.61-9.51,10.35-12,17.99-2.72-.62-4.86-1.16-6.85,1.3l5.99,1.27ZM44.64,148.03c.59-.63-4.94-11.1-5.57-11.12-3.82-.1.46,12.43,5.57,11.12Z"/>
      <path class="cls-3" d="M343.7,75.21l-2.42-29.4c.96-3.11,7.54-3.63,10.37-2.98,3.77.86,3.08,4.07,5.42,5.72,6.46,4.54,16.15,1.15,13.83,14.89-1.62,9.58-8.57,5.68-15.44,6.83-4.33.73-7.53,4.36-11.77,4.94ZM359.97,62.35c.16-6.68-7.37-2.33-8.57,1.71l8.57-1.71Z"/>
      <path class="cls-3" d="M116.62,140.33c4.81-1.2,2.17,6.74,1.21,8.5-.28.52-7.49,8.13-3.37,6.91,7.99-2.37,11.35-17.64,9.47-24.86-1.17-4.48-6.98-6.92-7.97-11.74-.51-2.47-1.34-9.93,2.37-9.65.24,3.05-.52,6.52.39,9.47s5.38,5.23,6.87,7.7c3.4,5.63,1.72,16.24-1.1,21.97-4.46,9.07-17.73,11.85-15.57,24.27,2.75-1.65,2.91-6.7,6.85-6.85-1.37,1.38-4.66,10.76-5.15,11.13-.74.56-2.15-.46-2.37-1.47l-2.75-9.66c-3.96,9.55-.59,13.99,6.84,19.69h-7.71c-4.42-4.01-6.28-5.77-6.05-12.42.4-11.43,13-22.49,18.05-32.98Z"/>
      <path class="cls-3" d="M32.06,205.69l6.15-8.72c1.21,2.15,7.02,3.07,7.75,4.16,1.23,1.81-.23,4.42-.14,6.32.49,10.33,3.27,15.35,8.72,23.73-4.8,3.5-9.31,2.86-14.49.73-12.08-4.97-9.52-15.55-7.98-26.2ZM39.5,203.74c-.61-.56-2.17.13-2.98.87-3.87,3.54-3.39,21.22,4.69,21.4.83-3.29-2.03-4.37-3.01-6.83-2.34-5.87,1.88-14.91,1.3-15.44Z"/>
      <path class="cls-3" d="M186.88,222.59c2.41-.79,8.52-8.05,8.58-11.14l4.27,5.14c-4.15.69-2.16,5.68-2.95,9.47-1.02,4.91-6.32,8.19-7.32,11.54-.36,1.23.1,1.5,1.28,1.28,5.61-1.02,11.07-16.91,9.84-22.29,3.55.15,7.49,1.23,11.14,1.28-5.88,5.46-10.51,10.23-14.31,17.39-.76,1.44-1.7,5.45-2.17,5.97-.5.56-5.44,1.7-7.24,2.62-2.64,1.35-5.81,4.1-7.98,6.16-5.52-3.31-18.37,3-20.56-4.28,2.24-.41,4.57-1.19,6.85-1.71,3.16,1.37,11.29,1.65,13.78-.36.6-.48,6.22-7.58,6.4-8.16,1.16-3.74-.04-8.94.38-12.9Z"/>
      <path class="cls-3" d="M449.94,270.57c3.87,1.52-.32,4.69-2.24,4.9-1.16.13-2.72-.67-4.14-.65-7.67.11-18.72-.98-25.79-.01-1.79.24-3.14.73-3.81,2.61,10.13-.46,20.13.7,30.24,1.04,2.85.84,5.8,8.52,8.33,9.67,1.64.74,7.91.77,9.67.26,2.12-.62,14.44-15.42,14.97-18.44.28-1.61-.7-12.57,3.61-9.65,2.13,1.44-1,12.72-2.52,15.02l-15.2,15.65c-3.23.04-8.27.91-11.19-.45-2.83-1.32-6.35-9.45-9.37-10.33-7.4-2.16-21.47,1.89-29.38-1.03-1.7-.63-3.74-3.19-4.28-3.43.13-8.73,5.74-3.96,9.81-3.38,2.61.37,6.21-.13,9.04-.04,4.52.14,10.64.45,15,0,.88-.09,6.97-1.5,7.28-1.72Z"/>
      <path class="cls-3" d="M193.74,111.19c1.86.47,3.38.94,5.14,1.71.9,1.52,1.57,2.86,1.73,4.69,1.04,11.95-2.22,7.07-9.88,7.25-10.73.26-19.49,6.28-26.1,14.22-4,4.8-9.56,17.28-13.8,19.61-5.87,3.23-16.14,1.75-22.66,2.18-2.2.14-3.57,1.78-5.59,1.4-3.23-.6-3.44-6.06.64-6.39,1.45-.12,2.16,2.04,4.14,2.43,3.95.78,16.22.1,20.12-1.27,6.11-2.14,12.89-17.41,18.02-23.11,5.41-6.01,12.86-10.62,21.06-11.5,3.96-.42,6.96.71,10.67.4,1.75-2.72,1.06-5.5-1.33-7.36-.78-.61-7.51-3.1-2.15-4.27Z"/>
      <path class="cls-3" d="M26.65,174.6c-1.33.36-3.25-1.19-3.44,1.26-.33,4.21,1.43,8.21.87,12.45-2.78,1.37-4.97,3.16-7.7,4.28-4.52-12.28.87-24.93,9.85-33.41,4.98,5.97.74,9.14.42,15.42Z"/>
      <path class="cls-3" d="M98.62,243.15c3.11,2.74,14.05,16.12,16.88,16.96,5.32,1.58,16.05-.89,22.06.22,4.43.82,7.46,7.47,11.36,8.35,5.17,1.17,12.76-.48,18.24.18-.49,1.19-1.56,2.97-1.71,3.43-5.66-.33-13.73.63-19.1-1.04-2.8-.87-5.91-7.33-9.79-8.2-6.24-1.41-17.21,1.3-22.78-.36-2.69-.8-16.09-15.84-17.74-19.53.78-.15,1.86.18,2.57,0Z"/>
      <path class="cls-3" d="M169.74,262.86c-5.74-.97-20.12,1.66-24.46-.81-1.57-.89-3.86-5.07-4.42-5.2-4.09-1-11.75,1.08-15.93-.16-.81-.24-11.24-10.46-12.21-11.78-.59-.8-2.04-2.59-1.24-3.46,1.7-1.85,12.48,11.27,14.31,11.82,4.38,1.3,19.75-1.85,21.67,2.32l-2.56,1.7c1.17,1.21,2.04,2.64,3.87,2.99,6.34,1.21,15.95-.85,22.69.02-.73,1.65-1.51,2.15-1.71,2.57Z"/>
      <path class="cls-3" d="M428.52,101.77c-5.7-.68-11.97.04-17.13,2.57-.67-2.2-.96-4.71-1.73-6.86,2.64-1.75,12.98,5.23,13.78,1.17,1.65-8.37-9.59-3.9-13.78-2.88-.96-2.52-4.68-5.5-5.14-8.57,2.57.27,5.33-.21,8.04.11,8.24.95,15.15,5.8,15.96,14.46Z"/>
      <path class="cls-3" d="M470.51,207.16c-.21-6.78-4.47-15.02-4.96-20.34-.24-2.61,1.37-3.52,1.54-4.51,11.7-.27,9.01,18.93,3.43,24.85Z"/>
      <path class="cls-3" d="M374.54,72.63c3.95-9.18,8.21-17.73,18.84-9.43l-.86-4.7c.12-2.46,7.63,2.01,4.07,10.9-1.04,2.6-6.38,7.76-5.79,3.65.4-2.74,4.08-5.59,3.44-8.99-3.6,2.2-5.79-.72-8.21-.88-3.75-.25-7.73,7.51-9.78,10.3-.53-.33-1.15-.57-1.71-.86Z"/>
      <path class="cls-3" d="M250.29,180.6c10.2.79,24.33-1.64,28.32-12.38,1.64-4.43.97-9.96,2.31-13.12.52-1.23.23-1.29,1.93-1.06,2.12,20.56-12.32,31-31.7,29.13-.02-.13-.65-1.74-.86-2.57Z"/>
      <path class="cls-3" d="M185.17,222.59c-1.96,3.36-.83,9.87-2.15,12.84-.16.36-4.88,5.71-5.22,5.92-2.39,1.5-4.34.52-6.34.95-.06-2.26,2.39-2.46,3.81-4.33,3.82-5.03,3.13-10.27,3.05-16.24,2.39-.1,4.43.89,6.85.86Z"/>
      <path class="cls-3" d="M467.94,177.17c1.52,4.03,8.78,3.02,9.44,6.42.77,4.02.38,19.87-1.72,23.15-.65,1.01-5.24,5.61-5.14,1.28,0-.29,0-.57,0-.86,5.59-5.92,8.27-25.12-3.43-24.85.25-1.44.73-3.92.86-5.14Z"/>
      <path class="cls-3" d="M164.6,274.85c-.13.78.1,1.75,0,2.57-6.24-.86-15.87,1.26-21.64-.21-.8-.2-12.09-9.03-13.07-10.06-1.19-1.25-2.36-4.13,0-3.43,3.64,1.08,11.46,9.99,14.77,10.94,4.98,1.43,14.42-.67,19.95.18Z"/>
      <path class="cls-3" d="M430.23,101.77c-.56-.04-1.16.07-1.71,0-.81-8.66-7.72-13.51-15.96-14.46-2.7-.31-5.47.17-8.04-.11-3.17-.34-2.91-1.52-3.43-1.71,12.09-5.42,29.04,1.58,29.13,16.28Z"/>
      <path class="cls-3" d="M186.88,222.59c-.42,3.96.77,9.16-.38,12.9-.18.58-5.81,7.68-6.4,8.16-2.49,2.01-10.62,1.73-13.78.36,1.29-.3,2.91-1.24,5.14-1.71,2-.43,3.95.55,6.34-.95.33-.21,5.06-5.56,5.22-5.92,1.33-2.98.19-9.49,2.15-12.84.53,0,1.35.12,1.71,0Z"/>
      <path class="cls-3" d="M311.99,177.17l1.88-5.4c.19-1.62,4.97-5.77,4.97-6.17v-18.42c.97.12,1.91-.5,2.65.5,1.1,1.5,1.13,14.52.73,17.01-.67,4.25-6.65,7.12-7.66,11.62-1.32.3-1.7.58-2.57.86Z"/>
      <path class="cls-3" d="M174.89,256c-.96.89-.37,1.38-2.57,1.71-2.42.37-15.17-.38-17.39-1.03-1.58-.46-8.45-8.31-7.45-9.25,4.28-.98,7.11,6.07,9.15,6.69,3.17.97,10.55-.11,14.45.11,1.6.09,3.21-.19,3.81,1.76Z"/>
      <path class="cls-3" d="M304.27,180.6c1.06-3.6,2.7-7.06,3.34-10.8.89-5.24-.05-16.69,1.1-20.33.36-1.14,1.25-1.65,2.42-1.43v20.14c0,2.68-2.86,7.83-3.43,10.71-.94.42-2.46,1.21-3.43,1.71Z"/>
      <path class="cls-3" d="M219.44,327.98c-.21.11-.75,1.19-1.71,1.71-4.86-.06-9.81-2.85-13.64-5.64-1.42-1.04-8.32-6.96-9.12-8.02-2.36-3.13-.91-5.44,2.15-3.01,1.72,1.36,2.82,3.85,4.73,5.55,5.24,4.69,11,7.16,17.59,9.4Z"/>
      <path class="cls-3" d="M71.2,241.44c.89.33,1.66.59,2.57.86,3.59,9.85,12.15,6.12,20.15,6.85,2.66.24,4.53.46,3.84,3.43-5.72-2.06-14.92.47-19.96-1.03-1.84-.55-6.96-6.94-8.3-8.84-1.83-2.59.6-.95,1.7-1.27Z"/>
      <path class="cls-3" d="M449.94,202.02c2.97-.72,1.69,4.92,1.49,6.21-1.03,6.69-4.77,9.77-6.39,15.03-1.52,4.95-.51,9.88-1.97,14.74-1.49.2-.81-1.95-.85-2.98-.15-3.94-.41-12.42.86-15.86.74-2.01,3.74-5.08,4.95-8.33,1.11-2.98,1.12-6.49,1.91-8.8Z"/>
      <path class="cls-3" d="M55.78,160.89c-2.02,2.24-4.04,4.56-6,6.85-.44.51-1.67.87-2.19,1.63-2.61,3.76-2.09,8.59-2.1,12.94-1.91-.71-2.42-3.81-2.57-5.58-.72-8.49,2.96-11.37,9.5-15.35.81-.49,2.84-2.27,3.36-.49Z"/>
      <path class="cls-3" d="M199.74,216.59c.26-.04.59-.01.86,0,1.22,5.38-4.24,21.27-9.84,22.29-1.18.22-1.65-.06-1.28-1.28.99-3.35,6.3-6.63,7.32-11.54.79-3.79-1.19-8.78,2.95-9.47Z"/>
      <path class="cls-3" d="M159.46,245.72c2.19,7.29,15.05.97,20.56,4.28-.57.54-1.14,1.15-1.71,1.71-7.1-1.28-20.95,4.02-22.28-6,1.09-.13,2.41.19,3.43,0Z"/>
      <path class="cls-3" d="M479.08,216.59c1.76,1.1,4.29,11.02,4.28,13.29,0,1.34-.88,7.9-3.42,7.28.54-3.76.55-5.52,0-9.43-.06-.4-.44-.77-.86-.86-.08-.26.07-.59,0-.86-.63-2.4-1.27-4.72-2.57-6.85.09-.04.18-1.18.86-1.71.39-.31.8-.85.86-.86.21-.04.77-.05.86,0Z"/>
      <path class="cls-3" d="M26.65,217.44c-3.97-.02-2.69-7.17-2.35-9.63.16-1.16,2.1-7.99,2.47-8.23.74-.47,4.08-.88,3.3,1.58-2.49,4.9-3.5,10.83-3.43,16.28Z"/>
      <path class="cls-3" d="M409.67,95.77c4.19-1.02,15.43-5.49,13.78,2.88-.8,4.06-11.14-2.92-13.78-1.17-.16-.45.16-1.29,0-1.71Z"/>
      <path class="cls-3" d="M290.56,42.64c-3.03-.56-13.43-2.66-15.38-3.9-2.55-1.62-2.93-5.74-3.49-8.51,2.25-1.8,2.14,2.36,3.09,3.77,3.27,4.91,10.71,3.88,15.78,6.93.03.57-.02,1.14,0,1.71Z"/>
      <path class="cls-3" d="M449.94,136.9c.22.32,2.05-.85,2.57,3.84.36,3.24.99,4.72-1.71,5.59-1.86.6-9.76,2.03-10.28-.44-.72-3.43,7.06-1.4,8.62-2.5,1.44-1.02.64-4.82.8-6.48Z"/>
      <path class="cls-3" d="M74.63,261.14c3.04-.1,6.03-.75,3.47,3.03-2.36,3.48-4.52,2.02-5.64,2.88-1.18.91-2.24,4.72-4.24,4.36-2.88-.51.51-5.14,1.27-5.99,1.39-1.55,3.8-2.86,5.14-4.28Z"/>
      <path class="cls-2" d="M265.71,196.02v2.57c-7.18.03-13.6.69-20.56,2.56,2.89-7.95,5.33-4.31,11.53-4.24,3.31.04,5.85-.33,9.04-.9Z"/>
      <path class="cls-3" d="M26.65,174.6c-.21,4.08.7,7.59,1.57,11.49-.72,1.86-2.9,1.61-4.14,2.22.56-4.23-1.2-8.24-.87-12.45.19-2.45,2.11-.9,3.44-1.26Z"/>
      <path class="cls-3" d="M423.38,232.87c-.16.41.14,1.22,0,1.71-.44,1.59.63,2.98-2.16,3.47-6.37,1.1-4.9-9.38,2.16-5.18Z"/>
      <path class="cls-3" d="M53.21,127.47c-.26.78-.72,1.92-.86,2.57l-5.99-1.27c1.98-2.46,4.12-1.91,6.85-1.3Z"/>
      <path class="cls-3" d="M476.51,219.16c1.31,2.14,1.94,4.45,2.57,6.85-2.12.52-5.72-6.21-5.14-6.85.24-.27,2.05.24,2.57,0Z"/>
      <path class="cls-2" d="M372.82,297.13l-5.14-5.14c1.58.36,4.12.88,5.43,1.67.8.48.48,1.69.56,1.75-.84.21-.8.99-.86,1.71Z"/>
      <path class="cls-2" d="M270,54.64c1.49-.74,2.52-2.45,5.14-1.71-.12,1.89-2.91,2.11-3.43,2.56l-1.71-.86Z"/>
      <path class="cls-2" d="M178.31,291.99c2.72-1.68,5.52-2.69,2.57.86l-2.57-.86Z"/>
      <path class="cls-2" d="M271.71,198.59c-.84-.09-1.72.05-2.57,0,.3-1.34,1.95-.95,2.57,0Z"/>
      <path class="cls-2" d="M347.97,209.73c.65-1.01.52-1.03,2.14-.86l.43.44c-.19.3-.84.32-.85.42h-1.71Z"/>
      <path class="cls-3" d="M467.94,177.17c.84-8.28,0-18.81-6.39-24.89-1.85-1.76-6.2-3.17-6.41-3.46-.23-.31.85-5.14.42-7.67-1.04-6.15-6.38-9.87-7.16-12.56-.62-2.13-.07-4.99-.76-7.81-.92-3.8-3.73-5.53-4.55-7.45-1.27-2.99,6.56-.1,7.43.29,16.39,7.48,20.12,29.46,17.42,45.56,2.76.57,2.47-4.42,5.16-3.03,2.88,1.49,10.55,14.72,11.74,18.26,5.16,15.36.84,36.57-15.63,43.02.59-2.46.28-4.86.4-7.34.05-1.15.9-1.95.9-2.07-.1,4.33,4.5-.28,5.14-1.28,2.11-3.27,2.5-19.13,1.72-23.15-.65-3.4-7.92-2.39-9.44-6.42Z"/>
      <path class="cls-3" d="M477.36,217.44l.86-.86c-.06.01-.47.55-.86.86Z"/>
      <path class="cls-3" d="M479.93,227.73c-.37-.16-.74-.47-.86-.86.42.08.8.46.86.86Z"/>
      <path class="cls-3" d="M338.55,162.6c1.94-.68,2.38-2.91,2.59-4.69.91-7.75.04-19.29-.06-27.47-.06-4.81,1.26-7-1.33-12.3-2.14-4.38-14.02-14.58-14.73-16.97-1.66-5.58.04-22.32-.98-29.86-.3-2.22-1.64-2.72-1.76-4.66,1.17.22,3.55-.66,4.38.49,2.58,3.6-.92,26.22,1.64,33.32,2.31,6.41,14.14,14.12,15.2,19.93,1.03,5.67.82,34.02-.88,38.99-1.64,4.81-6.29,8.21-9.63,11.79-4.65-3.63,1.33-5.25,2.1-9.9,1.73-10.39-1.17-25.04.03-35.92-2.16-4.6-17.98-20.39-17.98-24.01v-25.28h2.57v28.71c4.57,5.82,18.85,15.57,18.85,23.14v34.7Z"/>
      <path class="cls-3" d="M322.05,185.09c5.11-.81,13-.69,15.82,4.33,1.17,2.09,2.81,6.29-.59,6.59-2.2-7.8-8.73-8.77-16.09-7.5-4.64.8-17.18,9.48-19.04,13.52-2.54,5.51,5.56,10.22-3.1,14.03-7.75,3.41-23.7-4.22-32.91-4.61-15.16-.63-36.91,7.53-44.97,21-4.11-.54.59-6.29,2.23-8.06,8.03-8.71,28.4-16.61,40.14-16.4,6.75.12,32.03,8.2,35.66,5.65,3.04-2.13-2.52-8.26.42-13.3,3.93-6.71,14.8-14.05,22.44-15.26Z"/>
      <path class="cls-3" d="M273.43,244.01v-16.71c0-.22-1.97-3.72-2.13-3.87-3.33-2.97-25.68.79-31.29.87v2.56s24-.85,24-.85v2.57h-14.14c-1.61,0-8.91.96-10.56,1.43-3.19.92-11.18,7.84-13.44,10.56-.56.68-2.26,1.71-.86,2.57,5.69-5.27,11.5-13.01,20.14-12.42-12.11,5.62-20.46,15.01-29.29,24.69-.76.83-.76,1.84-2.41,1.44l-1.36-5.98c4.16-4.71,8.28-9.49,12.9-13.75,1.87-1.72,9.28-6.66,9.87-8.13.92-2.31-3.41-.32-4.21-2.64-1.02-2.98,1.85-4.98,4.25-3.37.82.55.32,2.44,1.67,2.16.09-.71-.28-2,.11-2.44.63-.73,16.78-2.6,19.14-2.73,6.91-.37,18.51-2.34,19.97,5.81.36,2.03,1.27,16.47.65,17.38-.8,1.17-1.8.85-3.02.84Z"/>
      <path class="cls-3" d="M200.59,295.85c-1.71-9.63-21.07-11.81-19.67-26.46.36-3.77,7.19-12.26,10.46-13.6,4.61-1.87,15.11-.07,14.34,6.2-2.86.91-3.98-2.87-5.73-3.29-8.63-2.06-10.87,12.34-6.29,17.46,1.09,1.22,10.55,5.33,11.16,4.68.13-.13.1-2.31-.13-2.87-.76-1.89-3.84-1.88-4.63-3.1-1.65-2.54,3.07-7.78,5.8-.64,1.72,4.49,2.54,18.12,2.43,23.36-.05,2.54-.83,4.75-.9,7.24-4.22-.21-1.71-2.85-1.71-3.85v-13.71c0-5.84-7.24-5.48-11.18-7.67-10.54-5.86-1.83-19.31-2.54-20.18-4.87,3.06-9.24,7.67-8.39,13.91.94,6.94,7.36,8.36,11.84,12.22,6.56,5.65,7.52,8.35,6.83,17.14-.09,1.15-.41,5.2-1.7,5.58-.46-3.79.64-8.84,0-12.42Z"/>
      <path class="cls-3" d="M396.47,120.31c-.19.32-1.45,0-1.42,1.54.16,9.72,6.38,11.1,10.35,17.19,4.44,6.82-.08,30.28,1.7,39.43.46,2.39,2.93,2.18,3.36,3.5,1.26,3.86-3.51,2.93-5.42.28-3.74-5.19.17-32.64-1.53-40.45-.34-1.19-6.89-8.73-7.97-9.17-1.57-.65-1.45.86-1.12,1.98.96,3.32,5.27,5.33,4.99,9.15-10.12-.22-5.29-16.57-6.83-22.53-.26-1.02-3.5-.63-2.61-5.3.97-5.07,10.59-2.68,6.52,4.4Z"/>
      <path class="cls-3" d="M308.56,67.49c3.01-.7,3.2,1.29,3.43,3.85.89,10.09-3.06,24.97.41,33.87,1.96,5.02,14.68,14.4,16.34,19.64,1.46,4.57-.35,11.92.34,16.8.41,2.87,4.15,6.34-.2,8.35-1.03.48-3.46.36-3.92-.38-1.12-1.8,2.45-20.08,1.03-23.73-1.98-5.23-17.43-17.35-17.43-21.99v-36.42Z"/>
      <path class="cls-3" d="M285.42,225.16v4.28c2.3.82,1.37-1.53,2.27-1.72,3.22-.69,8.4.53,11.91.06,2.09-.28,6.81-4.32,8.56-6.01.97-.93,8.05-9.07,8.32-9.68,1.57-3.63-1.05-7.76-.21-11.78h2.56c-.4,5.55,2.53,9.81-.85,15.01-.81,1.24-13.65,14.12-14.59,14.55-3,1.36-16.45-.24-17.13.44v9.43s-2.57,0-2.57,0v-15c0-.09,1.19-1.29,1.29-1.29h12.85c1.14,0,11.15-9.82,11.78-11.36,2.33-5.76-1.42-10.79-1.07-12.18.46-1.85,4.43-2.3,4.24,1.56-.11,2.3-.58,10.56-.99,11.95-.23.78-10.57,11.74-11.39,11.74h-15Z"/>
      <path class="cls-3" d="M295.71,79.49c3.02-.94,3.19,1.98,3.42,4.72.65,7.6-1.58,23.88.18,29.81.96,3.24,11.25,9.57,12.19,12.63,1.13,3.69.24,7.69.56,11.47.16,1.91,3.09,7.4.66,8.94-.85.54-4.78.33-5.49-.67-1.84-2.61,1.04-5.69,1.38-8.15.25-1.82.25-8.57-.22-10.15-.98-3.31-12.68-10.65-12.68-14.74v-33.85Z"/>
      <path class="cls-3" d="M395.96,153.18v36.85c0,.39-4.17,1.9-5.87,4.84-1.73,2.99-1.44,6.23-3.55,9.31-1.6,2.34-11.49,11.81-13.73,12.83-3.06,1.39-7.98-.37-10.6.39-.84.24-.33,3.85-3.66,4.14-3.97.35-6.18-6.38-.63-6.62,3.68-.16,11.4,1.1,14.89-.48,1.95-.88,10.67-9.9,11.88-12.12,1.28-2.36,1.52-5.13,2.83-7.45s5.36-5.28,5.86-7.85c1.69-8.8-1.59-22.79.02-31.68.27-1.48.92-2.4,2.57-2.15Z"/>
      <path class="cls-3" d="M335.12,203.73c5.38.5,11.35-1.86,16.69-.84,2.98.57,5.03,5.5,8.11,6.45,4.46,1.37,9.63.52,13.32-2.19,8.48-6.22,4.58-9.23,7.71-16.28,1.3-2.92,4.12-4.08,5.13-6.04.55-1.07.31-3.16.49-3.34.15-.15,4.1-.19,4.25-.04,2.45,2.48-7.18,7.81-8.19,11.09-1.04,3.36.18,7.53-1.73,11.12-1.17,2.2-8.56,7.48-11.03,7.82-1.86.25-11.37.28-12.76-.17-1.64-.54-3.03-5.86-4.42-5.86h-15v17.14h-2.57v-18.85Z"/>
      <path class="cls-3" d="M321.41,139.47h-2.57c.55-13.44-.84-14.17-9.39-23.6-1.3-1.43-3.25-2.14-4.34-3.38-5.47-6.25-.97-23.45-2.57-31.7-.34-1.74-6.17-7.38.44-7.37,5.11,0,2.2,4.95,2.11,8.18-.19,6.2-.88,19.23.23,24.69.3,1.46,1.48,3.26,2.38,4.48,2.8,3.81,11.51,10.31,13.26,14.16,1.64,3.58-.6,11.17.44,14.55Z"/>
      <path class="cls-3" d="M326.55,226.44c-.28,1.37-6.02,10.72-8.56,8.57,9.72-8.66,6.87-19.67,6-31.28,8.97,2.77,4.88-3.99,5.99-5.15s26.71.9,30.84-1.71c.75,1.64,1.05,6.92-1.28,6.84-.64-.02-1.34-2.48-2.14-2.98-1.73-1.07-25.7-1.21-25.7,1.71v25.28c-4.55.46-1.71-1.11-1.71-2.14v-12.85c0-.93-1.68-3.73-.86-5.58h-2.57c-.78,5.66,1.06,14.02,0,19.29Z"/>
      <path class="cls-3" d="M323.12,264.58c.31,1.61-.75,2.12-1.96,2.75-1.8.93-18.76,4.15-20.81,4.03-2.64-.15-7.15-6.33-9.46-7.53-6-3.11-17.43,3.21-24.31,2.45,3.98-5.54,18.65-7.28,24.62-5.33,3.87,1.26,6.38,6.49,9.25,7.04,3.92.75,21.2-4.69,22.68-3.41Z"/>
      <path class="cls-3" d="M371.11,252.58c3,3.17,6.15,8.85,10.67,9.46,3.78.51,19.59.57,23.13-.08,3.44-.63,5.67-5.06,8.79-5.77,2.32-.53,7.03-.84,8.81,1.12.4,2.1-1.67,1.19-2.99,1.27-8.34.45-5.31,1.05-10.77,4.66-4.58,3.03-20.19,2.84-26.13,2.25-7.29-.72-8.98-9.31-13.23-12.91h1.71Z"/>
      <path class="cls-3" d="M379.25,253.43c-2.11-.6-11.23-12.79-14.15-14.12-2.21-1-13.46-.59-16.73-.48-2.55.09-5.06,1.36-7.67.92-3.31-.57-1.76-2.92.87-3.43,2.84-.55,20.16-.47,22.93.16,4.8,1.08,12.04,12.98,16.05,14.8,4.62,2.1,12.94-1.17,17.83.19,1.53.43,2.22-.26,1.86,1.96-5.46-1-16.27,1.34-20.99,0Z"/>
      <path class="cls-3" d="M365.11,85.48c-8.66-.85-20.43.24-16.75,12.05.68,2.17,4.48,5.52,5.79,7.91,2.66,4.85,3.96,10.96,3.25,16.47-.16,1.25-.66,2.67-1.71,1.26,3.24-12.79-12.71-21.5-10.1-32.81,1.46-6.34,16.87-13.58,19.52-4.89Z"/>
      <path class="cls-3" d="M398.53,145.47c2.23-.36,1.54.33,1.96,1.86,1.81,6.53,1.13,32.55.65,40.6-.22,3.62-.38,10.41-3.46,12.38-.75-1.6.85-3.95.85-4.71v-50.13Z"/>
      <path class="cls-3" d="M368.54,195.17c.15-.16,2.37.05,3.93-1.65,1.35-1.47,1.38-3.63,2.53-5.18,1.3-1.75,3.19-2.98,4.53-4.89,1.97-2.82,8.12-18.23,9.14-18.26,1.31-.04,1.25,2.68,1.21,3.72-.28,7.72-7.74,15.83-12.29,22.03-1.19,1.62-1.69,4.28-3.08,5.48-3.3,2.83-7.36.23-5.97-1.24Z"/>
      <path class="cls-3" d="M414.81,237.15c-.54.47-6.96-.5-8.85.14-2.41.83-5.7,9.41-12.12,10.16-2.46.29-8.51.29-10.77-.4-3.11-.95-9.78-10.43-4.7-8.16,1.45.65,1.8,4.13,5.35,4.93,2.08.47,7.08.46,9.26.2,6.09-.73,8.06-7.74,12.36-9.06,2.36-.73,9.76-1.55,9.47,2.18Z"/>
      <path class="cls-3" d="M358.26,92.34c-1.05-.92,2.42-3.67,3.13-4.14,10.79-7.19,15.24,3.2,24.91,5.66,1.5.38,7.88-.23,7.92,2.34s-8.89.68-10.45.19c-4.32-1.37-10.33-7.33-13.95-7.55-4.22-.26-7.21,4.11-11.56,3.5Z"/>
      <path class="cls-3" d="M371.11,252.58h-1.71c-.24-.21-1.42-.16-2.15-.82-1.61-1.47-4.54-5.28-5.95-6.08-2.3-1.32-17.01-1.13-20.64-.84-2.44.2-6.78,3.73-7.2-1.23-.49-5.7,4.9-1.59,7.18-1.27,5.59.78,15.59-1.31,20.43.13,1.87.56,8.19,8.16,10.03,10.11Z"/>
      <path class="cls-3" d="M387.4,238.01c8.42,2.81,10.06-7.4,15.37-9.05,3.58-1.11,7.85.25,11.43-.56,1.61-.36,7.21-5.62,8.31-1.95.81,2.69-5.56,4.22-7.48,4.5-3.38.5-8.75-.54-11.35.64-2.07.94-5.75,6.53-8.15,8.13-2.92,1.93-7.36,2.71-8.14-1.71Z"/>
      <path class="cls-3" d="M328.26,52.06l-6.87-9.83c-3.36-1.38-9.31.69-12.27-1.23-2.62-1.69-.8-10.38-8.91-11.87-.83-.15-9.87.21-7.08-1.91,5.04-.48,12.2.31,14.93,5.2,1.03,1.85,1.04,4.99,1.76,5.95,1.27,1.7,7.66.48,10.25.89,5.56.87,7.25,8.1,8.19,12.8Z"/>
      <path class="cls-3" d="M240.01,238.02c-6.84,10.68-18.82,16.39-24.42,28.25-1.64-1.33-3.11-2.8-1.34-4.73,6.74-6.2,12.8-13.75,19.75-19.68.84-.72,5.35-4.45,6.01-3.84Z"/>
      <path class="cls-3" d="M289.71,235.43l16.89-2.37c5.13-3.71,11.54-5.64,15.65-10.47.2,2.3-.22,3.85-1.77,5.51-.93,1-11.39,6.92-13.03,7.54-5.68,2.15-12.16,2.06-17.75-.2Z"/>
      <path class="cls-3" d="M275.88,282.46c-.22.39-6.9,4.92-7.38,5.05-1.62.42-2.96.33-4.54-.19-1.19-.39-10.66-9.07-12.4-10.73-1.91-1.82-4.98-4.22-5.54-6.87,2.05-1.89,15.23,14.35,18.62,15.29,4.4,1.22,8.01-5.93,10.09-5.85.82.03,1.76,2.26,1.16,3.3Z"/>
      <path class="cls-3" d="M241.64,246.65c.17.12.85,2.33.77,2.8-.49,2.87-4.77,1.87-6.67,2.71-3.09,1.37-10.1,9.78-13.29,12.41-.97.8-1.38,2.08-3,1.71-1.44-1.48,11.19-13.64,12.84-15,1.68-1.38,7.29-6.14,9.35-4.63Z"/>
      <path class="cls-3" d="M265.71,292c-2.41,3.97-8.3.07-11.68.05-9.54-.06-10.8,16.76-20.88,17.07l6.83-7.3c2.09-2.99,6.32-9.53,9.66-10.9,5.52-2.26,10.47,1.64,16.06,1.07Z"/>
      <path class="cls-3" d="M365.96,145.47c-1.02,6.05-6.72,8.27-9.88,11.96-1.37,1.6-3.27,7.24-5.1,6.88-2.44-.49.11-6.46.88-7.67l14.1-11.17Z"/>
      <path class="cls-3" d="M185.16,303.13c.2,3.42-.48,6.93.41,10.31,1.07,4.1,5.46,5.56,6.45,9.4-7.27-.8-10.54-10.13-10.08-16.46.18-2.53.61-3.88,3.22-3.25Z"/>
      <path class="cls-3" d="M357.4,249.15c-.54,4.26-9.64,2.46-13.27,2.58-3.25.11-6.23,1.88-9.86-.02.11-1.23,4.16-2.56,4.71-2.56h18.42Z"/>
      <path class="cls-3" d="M408.82,252.57c-.42-2.59.65-1.37,2.08-1.73,1.98-.5,7.87-.59,8.17-.87.17-.16.05-3.27.82-4.54,1.7-2.83,7-.37,4.42,3.34-3.5,5.02-10.24,3.75-15.48,3.8Z"/>
      <path class="cls-3" d="M211.73,277.43v29.13c-.66.49-1.71-1.73-1.71-2.14v-26.99h1.71Z"/>
      <path class="cls-3" d="M278.57,220.01c1.02-1.34,1.57-.02,1.72,1.27.36,3.1,1.78,18.47,0,19.74-.47.85-1.71-.77-1.71-.87v-20.14Z"/>
      <path class="cls-3" d="M414.82,220.87c1.44-5.48,8.52-7.2,8.99-13.7,7.61,4.45-8.04,14.65-8.99,13.7Z"/>
      <path class="cls-3" d="M347.97,262.87c1.89,2.03-6.72,4.36-8.14,4.34-10.37-.13,5.24-7.46,8.14-4.34Z"/>
      <path class="cls-3" d="M375.15,113.03c5.8-1.61,5.88,7.78-.16,6.78-3.54-.59-2.63-6,.16-6.78Z"/>
      <path class="cls-3" d="M251.14,283.43l-1.76,2.94-11.94,8.19c-.89-.91,6.27-7.83,7.28-8.56,1.86-1.34,4.01-2.7,6.42-2.57Z"/>
      <path class="cls-3" d="M208.53,313.19c-2.66-2.59,1.67-7.38,4.56-4.99,3.65,3.03-1.13,8.33-4.56,4.99Z"/>
      <path class="cls-3" d="M230.58,293.71c10.78-1.87,5.04,10.29.78,4.79-1.09-1.4-.81-3.17-.78-4.79Z"/>
      <path class="cls-3" d="M242.7,239.85c1.27-2.01,7.45-.5,5.49,3.31-2.19,4.24-7.81.37-5.49-3.31Z"/>
      <path class="cls-3" d="M321.41,139.47c.03.1,1.24.43,1.56,1.43,1.63,5.11-3.97,5.97-4.89,3.15-.7-2.15.72-3.52.76-4.58h2.57Z"/>
      <path class="cls-3" d="M412.88,221.53c-2.57,2.66-7.6-2.31-3.2-4.55,2.91-1.48,5.46,2.2,3.2,4.55Z"/>
      <path class="cls-3" d="M196.31,303.99l-.08,5.06c-6.21,2.52-6.91-6.95.08-5.06Z"/>
      <path class="cls-3" d="M324.52,194.37c2.56-.42,4.23,5.17,1.58,5.93-3.72,1.07-5.2-5.34-1.58-5.93Z"/>
      <path class="cls-3" d="M413.94,165.17l.5,5.2c-5.71,3.54-6.34-5.22-.5-5.2Z"/>
      <path class="cls-3" d="M214.4,235.53c1.3-2.08,7.38-.47,4.67,3.39-1.89,2.69-6.48-.5-4.67-3.39Z"/>
      <path class="cls-3" d="M316.15,53.06c.52.84-.04,2.99.12,4.15-9.7,1.24-2.6-8.16-.12-4.15Z"/>
      <path class="cls-3" d="M315.65,196.64c-3.22-3.2,1.95-5.71,3.67-3.24,1.82,2.61-.96,5.93-3.67,3.24Z"/>
      <path class="cls-3" d="M411.39,139.47c.37-.39,3.71-.19,4.22,1.38.98,3-2.62,6.51-4.04,2.29-.25-.73-.38-3.46-.18-3.67Z"/>
      <path class="cls-3" d="M402.05,252.47c-1.02-1.67.04-5.68,2.49-4.64,4.36,1.85-.76,7.47-2.49,4.64Z"/>
      <path class="cls-3" d="M421.25,199.46c3.61-1.02,3.82,4.7,1.69,5.13s-4.39-4.37-1.69-5.13Z"/>
      <path class="cls-3" d="M276.85,214.87v4.29c-5.94.72-5.83-5.05,0-4.29Z"/>
      <path class="cls-3" d="M180.88,281.71c.98.69,1.3,5.23-2.13,4.27-3.05-.85-.28-5.97,2.13-4.27Z"/>
      <rect class="cls-3" x="253.72" y="214.01" width="3.42" height="4.29"/>
      <rect class="cls-3" x="413.11" y="159.18" width=".84" height="4.28"/>
      <path class="cls-3" d="M232.29,64.92c-.96,3.44-10.25,20.06-8.56,22.27,3.21-1.73,6.69-1.13,6.93,3,.25,4.36-2.58,3.32-3.35,5.3-1.11,2.86-1.38,12.85-.94,16.05.5,3.61,2.8,6.76,5.09,9.48,2.57,3.04,6.02,5.15,8.54,8.16-15-5.08-16.59-13.31-16.27-27.83.05-2.07,2.32-6.79-.45-8.14-1.55-.76-1.75,2.33-1.89,3.23-.93,5.99-2.16,19.94-1.11,25.48.38,1.97,14.59,10.7,17.55,13.3,9.15,8.06,4.91,10.62,8.4,16.02.6.93,4.14,1.65,3.9,3.93-.67,6.51-8.21,4.42-7.56-.65.16-1.24,1.48-2.03,1.5-3.3.03-1.52-2.25-8.14-3.21-9.6-1.3-1.98-18.56-15.43-19.71-14.13.07,10.89,2.12,22.14,1.71,32.99-.04,1.03.64,3.19-.85,2.98-.67-2.97-1.23-6.08-1.62-9.1-3.46-26.79-7.04-62.39,8.1-85.93.9-1.39,1.73-3.75,3.78-3.5Z"/>
      <path class="cls-3" d="M274.85,152.59c4.2,6.01-5.64,10.45-7.07,4.94-1.11-4.31,2.01-3.93,2.3-7.34,1.41-16.29-13.1-33.49-13.01-46.28.03-4.54,3.05-21.11,5.33-24.74,3.39-5.38,14.01-1.97,18.56-13.15,1.97-4.84,2.26-7.36.59-12.23-.4-1.17-6.39-10.52-1.7-9.44,6.87,8.74,7.34,18.28.81,27.36-5.35,7.45-12.94,5.22-15.82,9.03-2.17,2.87-5.03,17.48-5.16,21.42-.31,9.1,7.61,21.32,10.08,31.11,1.84,7.28,1.14,13.64,5.09,19.3Z"/>
      <path class="cls-3" d="M163.75,225.16c.23-3.42.23-5.32-1.72-8.14-.99-1.44-13.12-12.06-14.65-12.77-2.97-1.39-5.85-.87-8.92-3.07-12.29-8.81,8-27.14,21.42-17.14,3.22,2.39,3.74,5.35,5.96,7.75,2.77,3,8.57,5.44,11.29,9.27,2.19,1.7,6.61,1.08,7.17-2.03,1.77-9.7-2.74-21.43-2.15-31.27,3.46,6.04,7.46,26.49,4.93,32.34-1.03,2.39-4.91,4.65-7.47,4.57-4.09-.13-5.42-3.55-8.24-5.57-2.16-1.55-4.94-2.68-6.81-4.33-3.3-2.9-5.46-9.53-10-10.56-7.42-1.68-18.19,2.47-16.52,11.35,1.01,5.43,8.48,4.99,11.93,6.95,1.42.81,12.3,10.94,13.29,12.42,1.84,2.76,4.06,7.97.5,10.22Z"/>
      <path class="cls-3" d="M208.95,66.42c-3.87,3.83-6.69-1.57-8.09-2.17-7.98-3.41-30.04.24-35.4,8.37.41.03,10.52-2.03,7.71.85-.31.32-5.36,1.84-6.82,3.05-5.67,4.68.15,8.29.79,12.89,1.47,10.48-11.87,22.56-21.31,13.56-3.62-3.45-9.07-15.57-14.66-5.49-2.54-.18-.74-4.36.58-5.21,3.23-2.08,9.29.3,11.87,2.62,2.53,2.28,3.27,6.65,7.31,8.11,7.39,2.68,14.47-6.72,13.48-13.45-.57-3.83-3.38-5.77-3.3-10.5.31-19.16,26.47-17.97,39.9-18.43,2.3-.08,5.04-1.8,7.3-.43,1.7,1.03,2.13,4.74.64,6.22Z"/>
      <path class="cls-3" d="M225.45,164.32c2.59-.42,1.37.65,1.73,2.08,2.06,8.19.49,18.8,2.42,27.31-6.69,6.86-16.88,13.57-25.18,4.92-4.78-4.98-3.48-19.87-4.72-26.99-.46-2.62-2.45-3.75-3.05-5.59-1.22-3.78,4.62-7.59,6.74-3.23,1.73,3.55-.71,3.98-1.04,6.26-.58,3.98.71,20.7,1.89,24.6.94,3.13,5.75,7.06,8.92,7.25,2.71.16,12.2-5.43,12.97-8.07,1.92-6.59-2.47-20.9-.68-28.52Z"/>
      <path class="cls-3" d="M95.21,159.18c1.93-5.58,7.71-23.74-3.78-22.25-13.28,1.72-18.01,30.38-33.07,29.96.79-1.64,3.47-1.82,5.08-3.05,9.08-6.9,11.09-22.67,23.73-28.54,12.48-5.79,15.68-3.66,14.03,10.6-.44,3.84-3.17,10.61-5.99,13.28Z"/>
      <path class="cls-3" d="M159.46,232.01v2.57h-26.13c-4.03,0-11.49-4.08-14.58-6.84-3.5-3.13-5.35-8.11-7.74-10.25-2.23-2-5.01-.78-4.75-5.61.31-5.58,8.65-5.27,8.7-.04.05,5.67-1.94,4.51,2.54,10.3,4.04,5.22,11.7,9.87,18.4,9.87h23.56Z"/>
      <path class="cls-3" d="M105.48,100.06c0,2.13-.61,4.44-2.15,5.99l-1.28-3.42c-9.96.13-3.18,9.98-8.12,14.59-1.34,1.25-14.77,8-16.97,8.74-.92.31-3.54,1.17-4.04.67-.17-.17-.29-1.98.53-2.63,3.9-3.09,18.04-5.45,19.16-11.52.62-3.36-1.24-7.39,1.78-10.22,2.84-2.67,7.5-2.27,11.09-2.18Z"/>
      <path class="cls-3" d="M126.04,99.2c-.17,6.93-4.4,14.37,1.33,20.52,1.52,1.63,3.94,1.69,5.27,2.88,1.92,1.7,2.91,6.69,5.84,8.33,1.72,3.77-2.29,7.65-5.23,5.21s.1-6.27-1.3-8.93c-1.56-2.97-5.72-4.36-7.64-7-3.59-4.94-2.79-13.98-.39-19.29.59-1.31-.11-2.11,2.1-1.7Z"/>
      <path class="cls-3" d="M237.53,90.53c-.5-.31-1.08-3.46-.82-4.43.27-1,2.21-2.5,2.93-4,4.66-9.68,8.26-18.92,8.94-29.63.33-5.19,3.2-.06,3.39,2.69.38,5.48-7.96,21.55-9.86,28.55-.54,1.99.04,9.69-4.58,6.81Z"/>
      <path class="cls-3" d="M232.29,148.9c.46,13.3,2.75,27.42,1.72,40.71-.06.77-.56,3.84-1.3,3.85l-3.75-43.21c.68-1.49,1.82-1.5,3.32-1.35Z"/>
      <path class="cls-3" d="M182.6,78.63c1.28-1.13,8.66,3.7,9.81,5.17,2.1,2.68,2.2,7.04,4.78,9.86.41,4.28-3.52,6.56-6.44,2.92-3.52-4.39,4.44-5-1.71-11.99-1.02-1.15-7.69-4.88-6.45-5.97Z"/>
      <path class="cls-3" d="M231.18,32.5c7.83-2.38,7.72,11.31-.37,7.78-4.17-1.82-2.8-6.82.37-7.78Z"/>
      <path class="cls-3" d="M84.91,191.73c-1.72.35-2-.82-2.74-1.97-5.04-7.82,1.72-19.8,6.61-26.29-1.13,6.31-6.21,12.04-6.34,18.49-.07,3.35,1.67,6.63,2.47,9.76Z"/>
      <path class="cls-3" d="M87.48,193.45c-.24-2.09.15-3.94,2.14-4.96,1.74,2.83,12.36,3.53,12.42,5.39.1,3.4-12.66-1.4-14.55-.43Z"/>
      <path class="cls-3" d="M264.12,33.34c6.02-3.76,8.95,7.63,2.02,7.67-4.74.03-2.98-7.06-2.02-7.67Z"/>
      <path class="cls-3" d="M178.86,154.15c7.5-2.51,7.03,7.84,1.73,7.4-3.91-.33-4.26-6.55-1.73-7.4Z"/>
      <path class="cls-3" d="M132.04,74.35c.24,1.73.16,1.41-1.07,1.93-2.56,1.08-6.13.72-8.65,2.48l-5.7,5.01c.17-7.38,9.02-10.5,15.41-9.42Z"/>
      <path class="cls-3" d="M145.7,70.99c.17.27.14,2.41.05,2.5-.46.48-10.99-1.92-12.51-2.48-3.34-1.23.15-2.56,2.42-2.45,1.18.06,9.76,2,10.04,2.43Z"/>
      <path class="cls-3" d="M273.42,64.92c2.29,2.61-5.76,8.41-8.56,7.7.51-2.14,3.86-4.61,5.56-6,.54-.44,2.22-2.59,3-1.71Z"/>
      <path class="cls-3" d="M245.15,53.79c.7,1.82-.21,12.55-3.42,9.42-.38-.37.27-10.27,3.42-9.42Z"/>
      <path class="cls-3" d="M72.91,129.2c-.76,4.87-7.79,2.32-5.99-1.73l5.99,1.73Z"/>
      <rect class="cls-3" x="264.85" y="100.05" width="4.29" height="4.29"/>
      <path class="cls-3" d="M89.63,161.75c.56.29.56.57,0,.86v-.86Z"/>
      <path class="cls-3" d="M337.58,292.11c1.04.66,1.08,5.61-.45,5.95-1.66.37-3.79-.88-5.67-.73-3.17.25-8.88,3.6-12.62,4.53-4.74,1.19-11.86.95-15.66,2.33-1.33.48-2.15,2.19-2.88,2.31-1.11.18-1.73-1.76-3.74-1.32-6.77,1.5-14.59,20.21-24.85,17.66-.43-2.28.49-1.49,1.71-2.09,10.68-5.24,10.83-9.89,18.82-16.35.81-.65,6.24-4.47,6.63-4.58,1.66-.44,3.28,1.33,5.02,1.58,4.09.59,18.78-3.37,23.1-5.09,2.86-1.14,8.29-5.65,10.56-4.2Z"/>
      <path class="cls-3" d="M267.42,323.7c.81,3.1-1.81,3.14-4.27,3.86-9.84,2.89-25.09,2.18-32.98,8.15-3.29,2.49-5.63,7.05-10.73,6.83l9-9.42c11.93-5.97,26.21-5.66,38.98-9.42Z"/>
      <path class="cls-3" d="M390.39,283.42c2.11.36,5.69,7.01,8.16,8.13,3.95,1.79,10.22-.87,12.29-.34s2.44,4.13-1.34,4.03c-3.98-.1-8.72-1.16-12.96-.84-2.37-1.11-5.53-8.41-7.87-8.41h-15.85v-2.57c5.33.64,12.51-.87,17.57,0Z"/>
      <path class="cls-3" d="M335.12,299.71c.32,2.17-1.78,2.64-3.22,3.2-8.27,3.22-19.75,3.78-28.48,6.22.4-4.49,7.5-3.63,11.31-4.53,6.78-1.6,13.49-3.8,20.39-4.88Z"/>
      <path class="cls-3" d="M269.78,312.68c3.52-.49,6.62,5.35,1.35,7.33-4.59,1.72-7.03-6.53-1.35-7.33Z"/>
      <path class="cls-3" d="M359.12,290.28c2.63,5.64-9.29,4.72-10.28,3.42-2.24-2.97,8.83-4.23,10.28-3.42Z"/>
      <path class="cls-3" d="M437.95,169.03c-.37,3.7-3.86,11.65-3.45,14.52.52,3.65,12.88,14.84,6.03,20.18.94-6.42-9.28-16.18-9.52-20.14-.15-2.54,2.58-8.09,3.25-11.39,1.25-6.15.97-12.45,1.96-18.6.21-1.28.05-2.65,1.72-2.99-.43,5.93.59,12.59,0,18.42Z"/>
      <path class="cls-3" d="M449.09,232.01v17.57c0,4.27-7.33,15.33-12.86,13.7,4.9-6.63,9.48-9.05,10.28-18,.35-3.9-1.84-12.67,2.58-13.27Z"/>
      <path class="cls-3" d="M434.52,151.46l-2.09-12.04c.05-4.35-5.01-12.29-4.77-15.79.06-.85,1.7-.7,2.62.13,1.35,1.21,4.24,10.89,4.24,12.71v15Z"/>
      <path class="cls-3" d="M423.5,117.31c.91-1.43,4.98-1.23,5.74,1.33,1.88,6.34-9.09,3.94-5.74-1.33Z"/>
      <path class="cls-3" d="M84.91,277.42v-2.56c16.05,1.1,32.24.89,48.41.86,1.13.06,2.4.91,2.14,2.12-.63,2.98-12.48.48-14.96.41-11.86-.34-23.75-.21-35.6-.83Z"/>
      <path class="cls-3" d="M114.9,267.15c.26,1.65-.67,2.29-2.14,2.56-7.02,1.28-17.73-2.49-23.81-.68-2.06.61-6.29,6.72-10.02,6.68,6.15-14.94,23.52-7.68,35.98-8.56Z"/>
      <path class="cls-3" d="M67.77,245.72c.36,6.44-5.03,8.96-10.67,9.46-7.74.69-20.63.29-19.75-10.31,7.25,11.9,22.04,11.13,30.41.85Z"/>
      <path class="cls-3" d="M97.77,260.29c-.1-.08.4-1.49-.56-1.74-3-.78-9.61.37-13.49-.08-1.34-.15-4.69-.3-3.95-2.46,4.93-1.11,11.47,1.23,15.84.92s9.19-5.5,9.01,4.22c-.37.38-6.19-.3-6.86-.86,1.16,7.68-9.07,2.63-13.69,4.73-1.86.85-9.94,12.08-11.15,10.69-.19-1.86-.14-3.08.81-4.75.31-.56,8.91-8.24,9.49-8.51,3.3-1.5,10.47.47,14.55-2.16Z"/>
      <path class="cls-3" d="M459.38,285.14c.61-5.57,10.27-10.77,11.08-15.9-1.22-7.6,2.96-22.83-1.57-28.99-.89-1.21-5.32.31-5.32-4.38,0-4.89,6.69-5.08,7.66-1.52.52,1.91-.62,3.39-.49,4.85.17,1.78,2.7,4.92,3.11,7.89.44,3.24-.31,18.74-.83,22.15-.71,4.56-9.3,13.65-13.65,15.91Z"/>
      <path class="cls-3" d="M477.36,283.43c1.54,1.71-8.1,12.66-10.23,13.32-4.14,1.28-7.02-.38-10.76-.55-2.49-.11-5.15,1.5-7.26.53-.72-.33-10.19-11.23-10.32-12.01-.82-4.79,4.71,2.17,5.13,2.59,1.74,1.73,5.69,6.26,7.69,6.88,2.66.82,13.71.84,15.94-.43,1.69-.96,8.46-11.81,9.8-10.32Z"/>
      <path class="cls-3" d="M445.65,298.84c-1.73,1.83-4.65-8.65-10.68-7.75-4.12.62-2.82,8.55-4.3,11.2-.75,1.35-2.08.12-2.15-.46s2.37-11.13,2.73-11.82c3.12-6.02,14.5,3.69,14.4,8.83Z"/>
      <path class="cls-3" d="M437.94,294.56c-.87,7.47,9.26,4.56,12.36,6.78.79.57.66,2.44.49,2.64-.56.66-13.58-2.84-15.19-4.5-2.04-2.1-1.22-5.7,2.33-4.92Z"/>
      <path class="cls-3" d="M59.2,199.45c-4.28,21.6,19.26,31.83,37.27,25.69,1.63,2.38-.82,3.42-2.93,3.92-13.96,3.32-35.09-5.13-37.55-20.83-.46-2.93-.88-8.39,3.21-8.79Z"/>
      <path class="cls-3" d="M102.05,75.21c1.09.88-.03,1.51-1.06,1.93-2.52,1.03-8.14.71-10.11,2.75-1.28,1.33-.45,3.36-1.25,4.74-.98,1.68-8.76,4.14-11.37,10.05-.38.87-1.54,9.25-3.21,6.24-4.04-7.25,5.99-12.37,9.47-16.26,1.67-1.87,2.19-4.11,4.22-6.07,4.02-3.88,8.04-3.63,13.31-3.39Z"/>
      <path class="cls-3" d="M44.64,148.03c-5.11,1.31-9.38-11.22-5.57-11.12.63.02,6.16,10.49,5.57,11.12Z"/>
      <path class="cls-3" d="M359.97,62.35l-8.57,1.71c1.2-4.04,8.73-8.39,8.57-1.71Z"/>
      <path class="cls-3" d="M39.5,203.74c.58.53-3.64,9.57-1.3,15.44.98,2.46,3.84,3.54,3.01,6.83-8.08-.18-8.56-17.86-4.69-21.4.81-.74,2.37-1.43,2.98-.87Z"/>
    </g>
  </g>
</svg>