<?xml version="1.0" encoding="UTF-8"?>
<svg id="_レイヤー_2" data-name="レイヤー 2" xmlns="http://www.w3.org/2000/svg" viewBox="0 0 557.91 808.82">
  <defs>
    <style>
      .cls-1 {
        fill: none;
        stroke: #251e1c;
        stroke-miterlimit: 10;
        stroke-width: 3px;
      }
    </style>
  </defs>
  <g id="main">
    <g>
      <path id="hand-l" class="cls-1" d="M62.41,360.78c-1.11,2.12-3.81,3.05-5.58,4.59-3.17,2.49-5.42,5.64-7.81,8.71-1.33,1.78-2.12,3.88-2.87,5.95-1.46,3.43-3.46,6.45-5.36,9.59-1.97,2.89-4.61,2.23-3.67-1.41.53-2.07,1.77-3.85,2.62-5.79.78-1.71,1.04-3.49,1.76-5.14.46-1.39,2.78-4.55.5-5.24-4.11.44-5.28,5.75-7.24,8.68-.67.99-1.54,1.84-2.38,2.68-2.51,2.59-4.24,5.88-6.54,8.63-2.3,3.41-6.38,1.91-4.1-2.12,2.56-3.97,5.86-7.39,7.62-11.82,1.09-2.28,3.49-4.26,3.99-6.88.32-2.62-2.63-1.2-3.68-.1-2.66,2.53-3.73,5.69-6.88,7.52-3.23,2.54-5.78,5.65-8.92,8.29-.79.71-1.72,1.42-2.75,1.66-1.52.41-2.79-.64-2.42-2.21.2-1.02.94-1.97,1.62-2.77,1.77-2.13,3.47-4.46,5.62-6.38,2.43-2.55,4.57-5.63,7.03-7.99,1.1-1.36,3.87-3.16,3.22-5.09-.41-.57-1.39-.37-1.94-.2-2.6.88-4.5,3.09-6.64,4.61-4.49,2.44-8.04,5.94-12.21,8.82-1.9,1.33-4.8.85-3.59-1.99,2.07-3.16,5.16-5.62,8.06-8.16,2.25-2.31,4.61-4.53,7.11-6.47,5.25-3.82,10.62-8.01,13.25-14.16,1.2-2.64-.71-4.34-3.33-3.9-2.91.04-5.42,3.05-8.21,2.1-1.08-.34-2.23.41-3.37.28-1.73-.03-3.76-1.11-3.8-2.35.2-2.04,3.04-2.26,4.55-3.06,1.92-.8,3.5-2.39,5.36-2.79,1.69-.37,3.49-.12,5.13-.76,1.95-.65,3.54-2.08,5.4-2.93,1.61-.75,3.44-.62,5.29-.7,3.68.06,7.41-1.62,11.08-1.23,2.13.59,3.26,2.72,5.28,3.62,5.67,2.95,11.4,7.65,12.4,14.09.05,2.3-1.9,5.02-2.51,7.35-.52,1.58-.44,3.05-.99,4.31l-.07.14Z"/>
      <path id="head" class="cls-1" d="M279.07,1.5h0s-.12,0-.12,0h-.12c-14.31.06-26.4,9.48-30.47,22.45,20.78.63,41.41,2.54,62.08,3.62-2.8-14.8-15.77-26.01-31.37-26.07Z"/>
      <path id="arm-l" class="cls-1" d="M160.88,191.68c-3.46,3.82-6.66,7.64-9.98,12.23-.94,1.3-3.33,5.5-4.21,6.8-5.53,8.13-7.38,15.27-10.31,22.46-.12.29-.32.51-.59.67-5.13,2.9-10.73,7.1-16.39,12.33-4.64,4.27-9.31,9.24-13.8,14.77-9.11,11.22-15.8,22.72-19.37,32.41-.06.17-.16.33-.29.46-.61.64-1.19,1.28-1.75,1.91-.06.07-.11.14-.16.23-2.03,3.56-4.44,7.32-7.2,11.15-.78,1.07-1.58,2.15-2.41,3.23-7.5,9.79-15.45,17.52-21.75,21.64-.59.38-.8,1.16-.47,1.78v.02c.16.29.4.52.69.65,4.7,2.03,8.57,5.31,11.06,9.33.3.19.58.43.84.69.51.51.92,1.09,1.24,1.74.48.95,1.75,1.1,2.39.24,4.16-5.62,10.32-12.13,17.74-18.47,4.33-3.7,8.66-6.96,12.74-9.68h0c7.15-4.76,13.56-7.84,17.99-8.65h0c.65-.41,1.27-.88,1.95-1.26,14.47-8.09,22.68-17.11,24.41-26.44.16-.56.33-1.12.5-1.69.81-2.65,1.78-5.38,2.91-8.13.34-.83.69-1.66,1.06-2.49,2.15-4.86,4.59-9.33,7.18-13.23.04-.08.09-.17.13-.25.4-.96.76-1.91,1.09-2.83.09-.25.25-.46.46-.63.79-.6,1.59-1.24,2.4-1.91.07-.06.13-.12.18-.18,2.9-3.55,5.86-6.34,8.69-8.18.09-.06.16-.12.23-.19,2.49-2.6,4.88-5.04,7.42-7.6-5.77-14.25-12.34-28.3-14.29-43.5-.07.21-.2.41-.35.58Z"/>
      <path id="hip" class="cls-1" d="M351.43,431.67s-.01-.1-.02-.15c0-.07-.02-.14-.04-.21-.56-1.96-1.11-4.18-1.64-6.6-.51-2.34-1.01-4.88-1.47-7.57-1.09-6.28-2.04-13.43-2.73-21.04-.23-2.55-.43-5.06-.59-7.5-.4-6.13-.58-11.89-.54-17,0-2.1.06-4.08.14-5.95,0-.07,0-.15,0-.22-1.27-11.65-3.56-22.46-6.59-31.85-.09-.26-.09-.54,0-.81,1.03-3.37,2.24-5.36,2.78-9.05.31-2.08,0-1.55.21-7.19,0-.05-.07-.44-.19-1.05-29.71,3.35-59.53,9.28-90.04,4.33-11.39-1.49-22.54-1.74-33.68-1.63.09,3.88-.12,3.69.16,5.53.54,3.69,1.75,5.68,2.78,9.05.08.27.08.54,0,.81-3.03,9.39-5.31,20.2-6.59,31.85,0,.07-.01.15,0,.22.09,1.87.14,3.85.14,5.95.04,5.11-.14,10.87-.54,17-.16,2.44-.36,4.95-.59,7.5-.69,7.61-1.64,14.76-2.73,21.04-.42,2.46-.87,4.78-1.34,6.95,5.93,2.59,13.63.77,20.4,1.73,15.71,3.39,31.33,6.3,46.79,8.15-1.04-8.63-2.97-16.53-5.55-23.17-.11-.27-.12-.56-.05-.84.12-.46.24-.93.37-1.39,2.4,2.38,5.37,3.8,8.59,3.83h0s.09,0,.09,0c0,0,0,0,.01,0s0,0,.01,0h.09c3.22-.04,6.19-1.46,8.59-3.84.12.47.24.93.37,1.39.07.28.06.57-.05.84-2.65,6.83-4.62,14.99-5.64,23.92,23.48,2.33,46.58,2,69.11-3.05Z"/>
      <path id="foot-l" class="cls-1" d="M234.72,738.68c.36,4.2.55,8.08.56,11.53,0,1.03-.01,2.02-.05,2.97-.01.32-.14.61-.35.86-.41.48-.78.98-1.11,1.5-.64,1-1.13,2.08-1.46,3.22-.31,1.08-.48,2.2-.48,3.37,0,1.47.26,2.89.76,4.2,0,.02.01.04.02.06.3.81.69,1.59,1.15,2.32.2.32.29.7.2,1.07-.45,1.9-1.16,3.87-2.17,5.82-.9,1.75-1.94,3.34-3.06,4.7-1.4,1.7-2.92,3.06-4.45,4.02-.16.1-.29.22-.39.38-.55.82-1.17,1.63-1.88,2.42-.9,1.03-1.94,2.02-3.09,2.94-1.12.9-2.28,1.68-3.44,2.33-1.95,1.1-3.92,1.85-5.77,2.23-.24.05-.46.15-.64.31-1.22,1.11-1.94,2.49-1.94,3.99,0,3.64,4.25,6.59,9.49,6.59,1.21,0,2.37-.16,3.43-.45.47-.13.97.04,1.31.39,1.08,1.11,2.64,1.65,4.21,1.31.52-.11.99-.32,1.42-.59.41-.26.92-.33,1.35-.12,1.66.81,3.51,1.27,5.47,1.27,5.05,0,9.42-3.05,11.62-7.52.25-.52.82-.82,1.39-.74.56.08,1.14.12,1.73.12,7.25,0,13.12-6.29,13.12-14.04,0-2.15-.45-4.19-1.25-6.01-.11-.23-.22-.46-.33-.69-.8-1.82-1.25-3.85-1.25-6,0-1.38.19-2.71.53-3.97h.01c.3-1.15.75-2.22,1.3-3.22.06-.11.11-.23.14-.36.2-.84.3-1.71.32-2.59v-.17c0-.08,0-.16-.01-.23-.07-4.06-2.16-7.68-5.4-10.07-.32-.23-.64-.45-.97-.66-.35-.22-.6-.56-.67-.97-.42-2.69-.73-5.77-.95-9.16-5.78-.55-11.59-1.25-17.44-2.22-.33-.04-.65-.09-.98-.14Z"/>
      <path id="leg-l" class="cls-1" d="M254.23,701.33c.9-9.17,2.14-17.83,3.61-25.54,1.32-7.01,2.83-13.22,4.4-18.35.02-.08.04-.16.05-.24.66-5.38.9-11.14.66-17.13-.18-4.42-.61-8.7-1.26-12.78-.02-.11-.05-.22-.09-.32-2.04-4.74-3.5-10.27-4.14-16.27-.16-1.45-.27-2.94-.33-4.44-.11-2.74-.05-5.42.17-8.01h.01c4.99-5.49,8.46-14.5,9.34-25.03.23-2.59.29-5.28.18-8.02-.25-6.34-1.4-12.29-3.21-17.48-.1-.28-.1-.58,0-.87,3.37-10.17,5.51-23.45,6.11-38.59h0c-.11-1.46-.2-2.93-.26-4.41-.19-4.81-.1-9.49.25-13.96v-.04c.21-2.61.51-5.14.88-7.59,0-.01,0-.02,0-.02t0-.01c.98-6.41,2.52-12.21,4.5-17.14h0c1.03-6.67,1.45-13.97,1.14-21.62-.13-3.25-.39-6.42-.76-9.5-15.46-1.85-31.08-4.77-46.79-8.15-6.77-.97-14.47.86-20.4-1.73-.04.21-.09.42-.13.62-.53,2.42-1.08,4.63-1.64,6.6-.02.07-.03.14-.04.21-1.73,14.32-1.89,31.17-.14,49.06,2.77,28.29,9.75,53.09,18.4,68.93h0c-1.29,5.01-1.93,10.61-1.76,16.52,0,.11.02.22.05.33,1.16,4.27,1.9,8.94,2.1,13.86.01.24.02.49.02.73.19,6.45-.57,12.54-2.08,17.87-1.2,4.27-2.88,8.05-4.92,11.15-.07.11-.12.22-.16.34-2.78,8.87-4.2,19.86-3.72,31.71.28,7.06,1.21,13.76,2.66,19.85.02.06.04.12.05.18,1.66,4.48,3.3,9.29,4.87,14.37t.01.02c1.82,5.86,3.57,12.08,5.18,18.55,4.03,16.2,6.62,31.39,7.69,43.7.33.05.65.1.98.14,5.85.97,11.66,1.68,17.44,2.22-.7-10.73-.39-24.62,1.09-39.71Z"/>
      <path id="leg-r" class="cls-1" d="M330.87,694.98c1.61-6.47,3.36-12.69,5.18-18.55t.01-.02c1.57-5.08,3.21-9.89,4.87-14.37.02-.06.04-.12.05-.18,1.44-6.09,2.38-12.79,2.66-19.85.48-11.85-.94-22.84-3.72-31.71-.04-.12-.09-.23-.16-.34-2.04-3.1-3.73-6.88-4.92-11.15-1.51-5.33-2.27-11.42-2.08-17.87,0-.24.01-.49.02-.73.2-4.92.93-9.59,2.1-13.86.03-.11.05-.22.05-.33.16-5.91-.48-11.51-1.76-16.51h0c8.65-15.85,15.63-40.65,18.4-68.94,1.75-17.83,1.59-34.63-.12-48.91-22.52,5.05-45.63,5.38-69.11,3.05-.32,2.85-.55,5.77-.67,8.75-.31,7.65.11,14.95,1.14,21.61h0c1.98,4.94,3.52,10.74,4.5,17.15t0,.01s0,.01,0,.02c.37,2.45.67,4.98.88,7.59v.04c.35,4.47.44,9.15.25,13.96-.06,1.48-.15,2.95-.26,4.4h0c.6,15.14,2.75,28.43,6.11,38.6.09.29.09.58,0,.87-1.81,5.19-2.95,11.13-3.21,17.48-.11,2.74-.05,5.43.18,8.02.88,10.53,4.35,19.54,9.34,25.02h.01c.22,2.6.28,5.28.17,8.02-.06,1.5-.17,2.99-.33,4.44-.64,6-2.1,11.54-4.14,16.27-.04.1-.08.21-.09.32-.65,4.08-1.09,8.36-1.26,12.78-.24,5.98,0,11.74.66,17.13.01.08.03.16.05.24,1.58,5.13,3.08,11.35,4.4,18.35,1.47,7.71,2.71,16.37,3.61,25.54,1.64,16.72,1.84,31.96.83,43.06,6.07.54,12.13,1.25,18.19,2.27.45-13.39,3.22-31.77,8.18-51.68Z"/>
      <path id="foot-r" class="cls-1" d="M348.83,794.93c-.18-.16-.4-.26-.64-.31-1.86-.38-3.83-1.13-5.77-2.23-1.16-.65-2.32-1.43-3.44-2.33-1.15-.92-2.19-1.91-3.09-2.94-.7-.79-1.33-1.6-1.88-2.42-.1-.15-.23-.28-.39-.38-1.53-.95-3.06-2.31-4.45-4.02-1.12-1.36-2.16-2.95-3.06-4.7-1.01-1.95-1.73-3.93-2.17-5.82-.09-.37,0-.75.2-1.07.46-.73.85-1.51,1.15-2.32,0-.02.02-.04.02-.06.5-1.31.76-2.73.76-4.2,0-1.17-.17-2.29-.48-3.37-.33-1.14-.82-2.22-1.46-3.22-.33-.52-.7-1.03-1.11-1.5-.21-.24-.34-.54-.35-.86-.04-.95-.05-1.94-.05-2.97,0-1.13.03-2.33.07-3.55-6.06-1.01-12.12-1.72-18.19-2.27-.19,2.08-.42,4.03-.69,5.81-.06.41-.31.75-.67.97-.33.21-.66.43-.97.66-3.24,2.39-5.33,6.01-5.4,10.07-.01.07-.01.15-.01.23v.17c.02.88.12,1.75.32,2.59.03.13.08.25.14.36.56,1,1,2.07,1.3,3.21h.01c.34,1.27.53,2.6.53,3.98,0,2.15-.45,4.18-1.25,6-.11.23-.22.46-.33.69-.8,1.82-1.25,3.86-1.25,6.01,0,7.75,5.87,14.04,13.12,14.04.59,0,1.16-.04,1.73-.12.57-.08,1.13.22,1.39.74,2.19,4.47,6.57,7.52,11.62,7.52,1.96,0,3.8-.46,5.47-1.27.44-.21.95-.14,1.35.12.43.28.9.48,1.42.59,1.57.34,3.12-.2,4.21-1.31.34-.35.84-.52,1.31-.39,1.06.29,2.22.45,3.43.45,5.24,0,9.49-2.95,9.49-6.59,0-1.5-.72-2.88-1.94-3.99Z"/>
      <path id="chest" class="cls-1" d="M396.81,181.16c-.03-.6-.08-1.14-.13-1.6-.95-8.19-2.37-11.31-5.15-17.17-.02-.05-.04-.1-.06-.16-4.44-15.09-17.34-26.45-33.09-28.34-1.53-.19-3.08-.28-4.66-.28s-3.19.1-4.74.29c-.23.03-.45,0-.66-.08-1.52-.6-3.16-1.31-4.92-2.1-5.02-2.28-10.89-5.31-17.04-8.86-8.46-4.88-15.81-9.81-20.78-13.78-.2-.16-.35-.37-.44-.62-.87-2.37-1.55-4.85-2.01-7.44-.24-1.32-.43-2.66-.56-4.03-5.93.17-11.84.44-17.73.79-1.7.67-3.72,1.06-5.9,1.06-1.34,0-2.61-.16-3.8-.43-6.73.48-13.46,1.02-20.21,1.57-.06.34-.1.69-.17,1.03-.47,2.58-1.14,5.07-2.01,7.44-.09.24-.24.45-.44.62-4.97,3.97-12.32,8.9-20.78,13.78-6.15,3.55-12.02,6.58-17.04,8.86-1.76.79-3.4,1.5-4.92,2.1-.21.08-.44.11-.66.08-1.55-.19-3.13-.29-4.74-.29s-3.13.09-4.66.28c-15.74,1.89-28.64,13.25-33.09,28.34-.02.05-.04.11-.06.16-2.78,5.86-4.21,8.98-5.15,17.17-.31,2.68-.3,8.45.07,11.04.02.17,0,.34-.06.5,1.95,15.2,8.52,29.25,14.29,43.5,1.83-1.84,3.73-3.74,5.82-5.81,3.69-3.66,4.01-3.57,6.95-7.26l3.67-5.79c1.19-.88,1.4-3.05,2.45-4.32,4.48-5.44,5.01-13.61,5.62-23.66.07-.94.1-1.89.11-2.86.02.6.05,1.2.09,1.8.19,2.67.62,5.26,1.28,7.76.03.11.04.23.04.34-.1,6.12.27,12.55,1.15,19.16.08.59.16,1.18.25,1.78,1.9,12.94,5.5,24.73,10.16,34.43h0c1.62,2.47,3.1,5.16,4.4,8.04.01,0,.01,0,.01.02,2.54,5.6,4.41,11.93,5.41,18.73.33,2.21.55,4.41.66,6.57h0c.12,15.03-1.78,13.04-4.42,22.14-.08.26-2.23,10.6-2.22,10.87.02.63.04,1.17.05,1.66,11.14-.12,22.29.14,33.68,1.63,30.51,4.95,60.33-.98,90.04-4.33-.52-2.69-1.97-9.6-2.03-9.82-2.64-9.1-4.54-7.11-4.42-22.13h0c.11-2.17.33-4.37.66-6.58,1-6.8,2.87-13.13,5.41-18.73,0-.01,0-.02.01-.02,1.3-2.88,2.78-5.57,4.4-8.03h0c4.62-9.62,8.19-21.29,10.1-34.09.01-.08.03-.16.04-.24,0-.04.01-.07.02-.11.09-.6.17-1.19.25-1.78.88-6.61,1.25-13.04,1.15-19.16,0-.12.01-.23.04-.34.66-2.5,1.1-5.09,1.28-7.76.04-.6.07-1.2.09-1.8.01.97.04,1.92.11,2.86.61,10.05,1.14,18.22,5.62,23.66.95,1.15,1.22,3.04,2.16,4.04,11.09-2.88,17.88-13.35,24.07-22.64,2-1,6-1,6-2-.24-3.63.22-6.8,1.11-9.66ZM200.15,184.89c-.01-.35-.01-.69-.01-1.04,0-.28,0-.55.01-.83.01.35.01.7.01,1.05,0,.28,0,.55-.01.82ZM357.75,184.89c-.01-.27-.01-.54-.01-.82,0-.35,0-.7.01-1.05.01.28.01.55.01.83,0,.35,0,.69-.01,1.04Z"/>
      <path id="arm-r" class="cls-1" d="M505.23,331.97c-6.3-4.12-14.25-11.85-21.75-21.64-.83-1.08-1.63-2.16-2.41-3.23-2.76-3.83-5.18-7.58-7.2-11.15-.05-.08-.1-.16-.16-.23-.55-.64-1.14-1.28-1.75-1.91-.13-.13-.22-.29-.29-.46-3.56-9.7-10.26-21.19-19.37-32.41-4.49-5.53-9.16-10.5-13.8-14.77-5.66-5.23-11.26-9.43-16.39-12.33-.27-.15-.47-.38-.59-.67-2.93-7.19-4.79-14.33-10.31-22.46-.88-1.3-3.27-5.5-4.21-6.8-3.32-4.59-6.52-8.41-9.98-12.23-.28-.3-.47-.67-.41-1.08.31-2.15.36-6.5.2-9.45-.88,2.87-1.35,6.03-1.11,9.66,0,1-4,1-6,2-6.19,9.28-12.98,19.75-24.07,22.64.09.1.19.2.3.28l3.67,5.79c2.94,3.69,3.27,3.6,6.95,7.26,4.99,4.95,8.97,8.94,13.24,13.41.07.07.15.14.23.19,2.82,1.83,5.79,4.63,8.69,8.18.05.07.12.13.18.18.81.68,1.61,1.32,2.4,1.91.21.16.37.37.46.63.33.92.69,1.86,1.09,2.83.04.08.09.17.13.25,2.58,3.9,5.03,8.37,7.18,13.23.37.83.72,1.66,1.06,2.49,1.13,2.75,2.1,5.48,2.91,8.13.17.57.34,1.13.5,1.69,1.73,9.33,9.94,18.35,24.41,26.44.68.38,1.3.85,1.95,1.25h0c4.43.82,10.84,3.9,17.99,8.66h0c4.08,2.72,8.41,5.98,12.74,9.68,7.42,6.33,13.58,12.85,17.74,18.47.63.86,1.91.71,2.39-.24.32-.64.73-1.23,1.24-1.74.26-.26.54-.5.84-.69,2.49-4.03,6.36-7.31,11.06-9.33.3-.13.53-.36.69-.65v-.02c.34-.62.13-1.39-.46-1.78Z"/>
      <path id="face" class="cls-1" d="M269.44,95.48c2.91,1.07,6.08,1.65,9.39,1.66h0s.12,0,.12,0h.12c3.31-.02,6.48-.6,9.39-1.67-.87.94-2.12,1.73-3.61,2.32,5.89-.35,11.79-.63,17.73-.79-.14-1.48-.21-2.97-.21-4.49,0-7.09,1.54-13.74,4.26-19.51.22-.47.22-1.03-.1-1.43-.49-.62-.78-1.59-.86-2.77-.09-1.36.11-3.01.64-4.71.15-.47.31-.92.5-1.35-.13,1.84-.13,3.59-.03,5.2.09,1.36.25,2.62.49,3.76t0,.01c.03.17.06.34.1.51.04.02.07.03.11.04,1.86.58,4.36-2.14,5.58-6.07.35-1.11.55-2.2.63-3.2-.59.76-1.22,1.34-1.88,1.71.61-.75,1.24-1.48,1.9-2.17.23-.25.46-.49.7-.72.1-.1.19-.21.25-.33.65-1.21,1.19-2.66,1.52-4.25,1.02-4.89-.24-9.28-2.8-9.81-1.14-.24-2.35.33-3.42,1.46-.13.12-.24.25-.35.39.08-.23.17-.45.26-.67-.25-.9-.56-1.73-.91-2.49-.16-.34-.18-.73-.04-1.09,1.35-3.56,2.1-7.43,2.1-11.46,0-2.05-.2-4.05-.57-6-20.67-1.08-41.31-2.99-62.08-3.62-.95,3.04-1.47,6.27-1.47,9.62,0,4.03.75,7.9,2.1,11.46.14.36.12.74-.04,1.09-.35.76-.66,1.59-.91,2.49.09.22.18.44.26.67-.11-.14-.22-.27-.35-.39-1.07-1.13-2.28-1.7-3.42-1.46-2.56.53-3.82,4.92-2.8,9.81.33,1.59.86,3.03,1.52,4.25.07.12.15.23.25.33.24.23.47.47.7.72.66.69,1.29,1.42,1.9,2.17-.66-.37-1.29-.95-1.88-1.71.08,1,.28,2.09.63,3.2,1.22,3.93,3.72,6.65,5.58,6.07.04-.01.07-.02.11-.04.04-.17.07-.34.1-.51t0-.01c.24-1.14.4-2.4.49-3.76.1-1.61.1-3.36-.03-5.2.19.43.35.88.5,1.35.53,1.7.73,3.35.64,4.71-.07,1.18-.37,2.15-.86,2.77-.32.4-.32.97-.1,1.43,2.72,5.77,4.26,12.42,4.26,19.51,0,2.56-.21,5.06-.6,7.49,6.75-.55,13.48-1.09,20.21-1.57-2.43-.55-4.46-1.6-5.71-2.95Z"/>
      <path id="hand-r" class="cls-1" d="M495.5,360.78c1.11,2.12,3.81,3.05,5.58,4.59,3.17,2.49,5.42,5.64,7.81,8.71,1.33,1.78,2.12,3.88,2.87,5.95,1.46,3.43,3.46,6.45,5.36,9.59,1.97,2.89,4.61,2.23,3.67-1.41-.53-2.07-1.77-3.85-2.62-5.79-.78-1.71-1.04-3.49-1.76-5.14-.46-1.39-2.78-4.55-.5-5.24,4.11.44,5.28,5.75,7.24,8.68.67.99,1.54,1.84,2.38,2.68,2.51,2.59,4.24,5.88,6.54,8.63,2.3,3.41,6.38,1.91,4.1-2.12-2.56-3.97-5.86-7.39-7.62-11.82-1.09-2.28-3.49-4.26-3.99-6.88-.32-2.62,2.63-1.2,3.68-.1,2.66,2.53,3.73,5.69,6.88,7.52,3.23,2.54,5.78,5.65,8.92,8.29.79.71,1.72,1.42,2.75,1.66,1.52.41,2.79-.64,2.42-2.21-.2-1.02-.94-1.97-1.62-2.77-1.77-2.13-3.47-4.46-5.62-6.38-2.43-2.55-4.57-5.63-7.03-7.99-1.1-1.36-3.87-3.16-3.22-5.09.41-.57,1.39-.37,1.94-.2,2.6.88,4.5,3.09,6.64,4.61,4.49,2.44,8.04,5.94,12.21,8.82,1.9,1.33,4.8.85,3.59-1.99-2.07-3.16-5.16-5.62-8.06-8.16-2.25-2.31-4.61-4.53-7.11-6.47-5.25-3.82-10.62-8.01-13.25-14.16-1.2-2.64.71-4.34,3.33-3.9,2.91.04,5.42,3.05,8.21,2.1,1.08-.34,2.23.41,3.37.28,1.73-.03,3.76-1.11,3.8-2.35-.2-2.04-3.04-2.26-4.55-3.06-1.92-.8-3.5-2.39-5.36-2.79-1.69-.37-3.49-.12-5.13-.76-1.95-.65-3.54-2.08-5.4-2.93-1.61-.75-3.44-.62-5.29-.7-3.68.06-7.41-1.62-11.08-1.23-2.13.59-3.26,2.72-5.28,3.62-5.67,2.95-11.4,7.65-12.4,14.09-.05,2.3,1.9,5.02,2.51,7.35.52,1.58.44,3.05.99,4.31l.07.14Z"/>
    </g>
  </g>
</svg>